<svg xmlns="http://www.w3.org/2000/svg" width="1236" height="712" viewBox="0 0 1236 712"><path fill-opacity=".059" fill-rule="evenodd" d="M1073.982 0a6.79 6.79 0 1 0 0 13.577 6.79 6.79 0 0 0 6.792-6.788A6.79 6.79 0 0 0 1073.982 0zM957.56 0a6.792 6.792 0 0 0-6.79 6.789 6.792 6.792 0 0 0 6.79 6.788 6.791 6.791 0 0 0 6.795-6.788A6.791 6.791 0 0 0 957.56 0zm-19.402 0a6.794 6.794 0 0 0-6.792 6.789 6.794 6.794 0 0 0 13.587 0A6.793 6.793 0 0 0 938.158 0zM782.933 0a6.79 6.79 0 0 0-6.795 6.789 6.79 6.79 0 0 0 6.795 6.788 6.79 6.79 0 0 0 6.79-6.788A6.79 6.79 0 0 0 782.932 0zm-271.65 0a6.793 6.793 0 0 0-6.795 6.789 6.793 6.793 0 0 0 13.584 0A6.79 6.79 0 0 0 511.282 0zm-77.615 0a6.793 6.793 0 0 0-6.794 6.789c0 3.748 3.043 6.788 6.794 6.788s6.792-3.04 6.792-6.788A6.79 6.79 0 0 0 433.668 0zm-19.404 0c-3.749 0-6.795 3.04-6.795 6.789 0 3.748 3.046 6.788 6.795 6.788a6.79 6.79 0 0 0 6.792-6.788A6.79 6.79 0 0 0 414.264 0zm523.894 32.978a6.793 6.793 0 0 0 6.795-6.788 6.794 6.794 0 0 0-13.587 0 6.794 6.794 0 0 0 6.792 6.788zm-116.42 0a6.792 6.792 0 0 0 6.793-6.788 6.792 6.792 0 0 0-6.793-6.789 6.787 6.787 0 0 0-6.79 6.789 6.787 6.787 0 0 0 6.79 6.788zm-19.409 0a6.794 6.794 0 0 0 6.797-6.788 6.794 6.794 0 0 0-6.797-6.789 6.786 6.786 0 0 0-6.784 6.789 6.786 6.786 0 0 0 6.784 6.788zm-77.611 0a6.791 6.791 0 0 0 6.794-6.788 6.791 6.791 0 0 0-6.794-6.789 6.79 6.79 0 0 0-6.79 6.789 6.79 6.79 0 0 0 6.79 6.788zm-194.032 0a6.788 6.788 0 0 0 0-13.577 6.791 6.791 0 0 0-6.794 6.789 6.791 6.791 0 0 0 6.794 6.788zm-19.404 0a6.79 6.79 0 0 0 6.79-6.788 6.793 6.793 0 0 0-13.584 0 6.793 6.793 0 0 0 6.794 6.788zm-19.404 0a6.79 6.79 0 0 0 6.792-6.788 6.79 6.79 0 0 0-6.792-6.789c-3.749 0-6.794 3.04-6.794 6.789 0 3.748 3.045 6.788 6.794 6.788zm-19.404 0a6.791 6.791 0 0 0 6.795-6.788 6.791 6.791 0 0 0-6.795-6.789 6.792 6.792 0 0 0-6.792 6.789 6.792 6.792 0 0 0 6.792 6.788zm-19.404 0a6.791 6.791 0 0 0 6.794-6.788 6.791 6.791 0 0 0-6.794-6.789 6.792 6.792 0 0 0-6.792 6.789 6.792 6.792 0 0 0 6.792 6.788zm-19.402 0a6.79 6.79 0 0 0 6.792-6.788c0-3.749-3.04-6.789-6.792-6.789s-6.794 3.04-6.794 6.789a6.793 6.793 0 0 0 6.794 6.788zm-19.404 0a6.79 6.79 0 0 0 6.792-6.788 6.79 6.79 0 0 0-6.792-6.789c-3.749 0-6.795 3.04-6.795 6.789 0 3.748 3.046 6.788 6.795 6.788zm-19.404 0a6.792 6.792 0 0 0 6.792-6.788c0-3.749-3.043-6.789-6.792-6.789s-6.795 3.04-6.795 6.789c0 3.748 3.046 6.788 6.795 6.788zm-19.404 0a6.793 6.793 0 0 0 6.794-6.788 6.793 6.793 0 0 0-13.584 0 6.789 6.789 0 0 0 6.79 6.788zm-19.404 0a6.793 6.793 0 0 0 6.794-6.788 6.793 6.793 0 0 0-13.584 0 6.789 6.789 0 0 0 6.79 6.788zm-38.806 0a6.791 6.791 0 0 0 6.794-6.788 6.791 6.791 0 0 0-6.794-6.789 6.789 6.789 0 1 0 0 13.577zm814.949 19.401c3.746 0 6.79-3.04 6.79-6.793 0-3.746-3.044-6.784-6.79-6.784-3.75 0-6.795 3.038-6.795 6.784a6.796 6.796 0 0 0 6.795 6.793zm-19.41 0a6.792 6.792 0 0 0 6.795-6.793c0-3.746-3.04-6.784-6.794-6.784a6.789 6.789 0 0 0 0 13.577zm-19.404 0a6.793 6.793 0 0 0 6.795-6.793c0-3.746-3.04-6.784-6.795-6.784-3.741 0-6.787 3.038-6.787 6.784a6.794 6.794 0 0 0 6.787 6.793zm-19.399 0a6.788 6.788 0 1 0 0-13.577 6.787 6.787 0 0 0-6.792 6.784 6.79 6.79 0 0 0 6.792 6.793zm-58.207 0a6.79 6.79 0 0 0 6.79-6.793 6.786 6.786 0 0 0-6.79-6.784 6.787 6.787 0 0 0-6.792 6.784 6.79 6.79 0 0 0 6.792 6.793zm-19.407 0c3.754 0 6.79-3.04 6.79-6.793a6.785 6.785 0 0 0-6.79-6.784 6.788 6.788 0 1 0 0 13.577zm-135.826 0a6.798 6.798 0 0 0 6.797-6.793c0-3.746-3.048-6.784-6.797-6.784s-6.785 3.038-6.785 6.784a6.787 6.787 0 0 0 6.785 6.793zm-19.404 0a6.796 6.796 0 0 0 6.797-6.793c0-3.746-3.046-6.784-6.797-6.784s-6.79 3.038-6.79 6.784a6.79 6.79 0 0 0 6.79 6.793zm-135.824 0a6.794 6.794 0 0 0 6.794-6.793c0-3.746-3.043-6.784-6.794-6.784a6.784 6.784 0 0 0-6.785 6.784 6.787 6.787 0 0 0 6.785 6.793zm-19.404 0a6.793 6.793 0 0 0 6.797-6.793c0-3.746-3.041-6.784-6.797-6.784-3.745 0-6.79 3.038-6.79 6.784a6.795 6.795 0 0 0 6.79 6.793zm-38.806 0a6.792 6.792 0 0 0 6.794-6.793c0-3.746-3.04-6.784-6.794-6.784-3.747 0-6.79 3.038-6.79 6.784a6.793 6.793 0 0 0 6.79 6.793zm-19.402 0a6.794 6.794 0 0 0 6.792-6.793c0-3.746-3.043-6.784-6.792-6.784a6.788 6.788 0 1 0 0 13.577zm-77.614 0a6.788 6.788 0 1 0 0-13.577 6.787 6.787 0 0 0-6.792 6.784 6.79 6.79 0 0 0 6.792 6.793zm-19.402 0a6.79 6.79 0 0 0 6.788-6.793 6.786 6.786 0 0 0-6.788-6.784c-3.753 0-6.794 3.038-6.794 6.784a6.792 6.792 0 0 0 6.794 6.793zm-19.404 0a6.788 6.788 0 1 0 0-13.577c-3.751 0-6.794 3.038-6.794 6.784a6.794 6.794 0 0 0 6.794 6.793zm-19.404 0a6.788 6.788 0 1 0 0-13.577c-3.749 0-6.794 3.038-6.794 6.784a6.796 6.796 0 0 0 6.794 6.793zm-19.404 0a6.792 6.792 0 0 0 6.795-6.793c0-3.746-3.041-6.784-6.795-6.784-3.749 0-6.792 3.038-6.792 6.784a6.794 6.794 0 0 0 6.792 6.793zm-19.404 0a6.792 6.792 0 0 0 6.794-6.793c0-3.746-3.04-6.784-6.794-6.784-3.749 0-6.792 3.038-6.792 6.784a6.794 6.794 0 0 0 6.792 6.793zm-19.402 0a6.788 6.788 0 1 0 0-13.577c-3.751 0-6.794 3.038-6.794 6.784a6.794 6.794 0 0 0 6.794 6.793zm-38.808 0a6.794 6.794 0 0 0 6.792-6.793c0-3.746-3.043-6.784-6.792-6.784s-6.795 3.038-6.795 6.784a6.796 6.796 0 0 0 6.795 6.793zm-19.404 0a6.794 6.794 0 0 0 6.794-6.793c0-3.746-3.043-6.784-6.794-6.784s-6.79 3.038-6.79 6.784a6.79 6.79 0 0 0 6.79 6.793zm-38.806 0a6.788 6.788 0 1 0 0-13.577 6.786 6.786 0 0 0-6.79 6.784 6.79 6.79 0 0 0 6.79 6.793zm-38.806 0a6.788 6.788 0 1 0 0-13.577 6.788 6.788 0 1 0 0 13.577zm-19.404 0a6.788 6.788 0 1 0 0-13.577 6.788 6.788 0 1 0 0 13.577zm873.151 19.401a6.791 6.791 0 1 0 0-13.582 6.79 6.79 0 0 0 0 13.582zm-19.396 0a6.792 6.792 0 0 0 0-13.582 6.797 6.797 0 0 0-6.795 6.794c0 3.748 3.046 6.788 6.795 6.788zm-19.41 0a6.791 6.791 0 1 0 .007-13.583 6.791 6.791 0 0 0-.006 13.583zm-19.404 0a6.791 6.791 0 1 0 0-13.582c-3.741 0-6.787 3.043-6.787 6.794a6.793 6.793 0 0 0 6.787 6.788zm-19.399 0a6.79 6.79 0 1 0 0-13.582 6.792 6.792 0 1 0 0 13.582zm-19.406 0a6.792 6.792 0 1 0 0-13.582 6.792 6.792 0 0 0-6.788 6.794 6.79 6.79 0 0 0 6.788 6.788zm-19.402 0a6.792 6.792 0 1 0 0-13.58 6.792 6.792 0 0 0 0 13.58zm-19.4 0a6.791 6.791 0 1 0-.003-13.581 6.791 6.791 0 0 0 .004 13.581zm-19.406 0c3.754 0 6.79-3.04 6.79-6.788a6.79 6.79 0 1 0-13.58 0 6.79 6.79 0 0 0 6.79 6.788zm-19.402 0a6.79 6.79 0 1 0 0-13.582 6.795 6.795 0 0 0-6.792 6.794 6.792 6.792 0 0 0 6.792 6.788zm-19.406 0a6.791 6.791 0 1 0-6.79-6.788 6.792 6.792 0 0 0 6.79 6.788zm-19.402 0a6.793 6.793 0 0 0 6.795-6.788 6.796 6.796 0 0 0-6.795-6.794 6.797 6.797 0 0 0-6.792 6.794 6.794 6.794 0 0 0 6.792 6.788zm-19.401 0c3.744 0 6.792-3.04 6.792-6.788a6.798 6.798 0 0 0-6.792-6.794 6.797 6.797 0 0 0-6.793 6.794 6.794 6.794 0 0 0 6.793 6.788zm-19.407 0c3.746 0 6.795-3.04 6.795-6.788a6.791 6.791 0 1 0-6.795 6.789zm-19.404 0c3.749 0 6.797-3.04 6.797-6.788a6.795 6.795 0 0 0-13.59 0 6.792 6.792 0 0 0 6.793 6.788zm-19.404 0c3.749 0 6.797-3.04 6.797-6.788 0-3.751-3.048-6.794-6.797-6.794s-6.785 3.043-6.785 6.794a6.786 6.786 0 0 0 6.785 6.788zm-19.404 0c3.751 0 6.797-3.04 6.797-6.788 0-3.751-3.046-6.794-6.797-6.794a6.792 6.792 0 0 0 0 13.582zm-19.4 0a6.792 6.792 0 0 0 6.793-6.788 6.79 6.79 0 1 0-13.582 0 6.787 6.787 0 0 0 6.79 6.788zm-77.616 0a6.793 6.793 0 0 0 6.794-6.788 6.796 6.796 0 0 0-6.794-6.794 6.795 6.795 0 0 0-6.792 6.794 6.792 6.792 0 0 0 6.792 6.788zm-116.42 0a6.792 6.792 0 0 0 6.792-6.788 6.795 6.795 0 0 0-6.792-6.794 6.79 6.79 0 1 0 0 13.582zm-19.404 0a6.792 6.792 0 0 0 6.792-6.788 6.795 6.795 0 0 0-6.792-6.794 6.79 6.79 0 1 0 0 13.582zm-77.612 0a6.788 6.788 0 0 0 6.788-6.788 6.79 6.79 0 1 0-6.788 6.788zm-19.404 0a6.79 6.79 0 0 0 6.79-6.788 6.793 6.793 0 1 0-13.584 0 6.793 6.793 0 0 0 6.794 6.788zm-19.404 0a6.79 6.79 0 1 0 0-13.582 6.797 6.797 0 0 0-6.794 6.794c0 3.748 3.045 6.788 6.794 6.788zm-19.404 0a6.791 6.791 0 1 0 0-13.582 6.795 6.795 0 0 0-6.792 6.794 6.792 6.792 0 0 0 6.792 6.788zm-19.404 0a6.791 6.791 0 1 0 0-13.582 6.795 6.795 0 0 0-6.792 6.794 6.792 6.792 0 0 0 6.792 6.788zm-19.402 0a6.79 6.79 0 1 0 0-13.582 6.796 6.796 0 0 0-6.794 6.794 6.793 6.793 0 0 0 6.794 6.788zm-19.404 0a6.79 6.79 0 1 0 0-13.582 6.797 6.797 0 0 0-6.795 6.794c0 3.748 3.046 6.788 6.795 6.788zm-19.404 0a6.792 6.792 0 0 0 6.792-6.788c0-3.751-3.043-6.794-6.792-6.794s-6.795 3.043-6.795 6.794c0 3.748 3.046 6.788 6.795 6.788zm-19.404 0a6.793 6.793 0 0 0 6.794-6.788 6.792 6.792 0 1 0-6.795 6.789zm-19.404 0a6.793 6.793 0 0 0 6.794-6.788 6.792 6.792 0 1 0-6.795 6.789zm-19.402 0a6.79 6.79 0 1 0 .002-13.582 6.79 6.79 0 0 0-.002 13.582zm-19.404 0a6.791 6.791 0 1 0-6.79-6.788 6.789 6.789 0 0 0 6.79 6.788zm-19.402 0a6.79 6.79 0 1 0 0-13.582 6.79 6.79 0 1 0 0 13.582zm-19.404 0a6.79 6.79 0 1 0 0-13.582 6.79 6.79 0 1 0 0 13.582zm-19.404 0a6.792 6.792 0 1 0 0-13.58 6.792 6.792 0 0 0 0 13.58zm-116.42 0a6.79 6.79 0 1 0 0-13.582 6.79 6.79 0 1 0 0 13.582zm970.17 19.399a6.792 6.792 0 0 0 6.794-6.791 6.793 6.793 0 0 0-6.794-6.789 6.793 6.793 0 0 0-6.788 6.789 6.792 6.792 0 0 0 6.788 6.79zm-19.405 0a6.792 6.792 0 0 0 6.795-6.791 6.793 6.793 0 0 0-6.795-6.789 6.795 6.795 0 0 0-6.787 6.789 6.794 6.794 0 0 0 6.787 6.79zm-19.399 0a6.791 6.791 0 0 0 6.792-6.791 6.793 6.793 0 0 0-13.584 0 6.79 6.79 0 0 0 6.792 6.79zm-19.406 0a6.79 6.79 0 1 0 .004-13.58 6.79 6.79 0 0 0-.004 13.58zm-19.402 0a6.79 6.79 0 1 0 0-13.58 6.79 6.79 0 0 0 0 13.58zm-19.4 0a6.79 6.79 0 1 0 0-13.58 6.79 6.79 0 1 0 0 13.58zm-19.406 0c3.754 0 6.79-3.04 6.79-6.791a6.789 6.789 0 0 0-6.79-6.789 6.79 6.79 0 0 0 0 13.58zm-19.402 0a6.791 6.791 0 0 0 6.793-6.791 6.792 6.792 0 0 0-13.585 0 6.793 6.793 0 0 0 6.792 6.79zm-19.406 0a6.792 6.792 0 0 0 6.795-6.791 6.793 6.793 0 0 0-13.585 0 6.792 6.792 0 0 0 6.79 6.79zm-19.402 0a6.794 6.794 0 0 0 6.795-6.791 6.795 6.795 0 0 0-13.587 0 6.795 6.795 0 0 0 6.792 6.79zm-19.401 0a6.796 6.796 0 0 0 6.792-6.791c0-3.746-3.048-6.789-6.792-6.789a6.796 6.796 0 0 0-6.793 6.789 6.795 6.795 0 0 0 6.793 6.79zm-19.407 0a6.797 6.797 0 0 0 6.795-6.791c0-3.746-3.049-6.789-6.795-6.789a6.79 6.79 0 0 0 0 13.58zm-19.404 0c3.749 0 6.797-3.04 6.797-6.791 0-3.746-3.048-6.789-6.797-6.789s-6.792 3.043-6.792 6.789a6.793 6.793 0 0 0 6.792 6.79zm-19.404 0c3.749 0 6.797-3.04 6.797-6.791 0-3.746-3.048-6.789-6.797-6.789s-6.785 3.043-6.785 6.789a6.787 6.787 0 0 0 6.785 6.79zm-19.404 0a6.796 6.796 0 0 0 6.797-6.791c0-3.746-3.046-6.789-6.797-6.789a6.79 6.79 0 0 0 0 13.58zm-19.4 0a6.793 6.793 0 0 0 6.793-6.791 6.794 6.794 0 0 0-6.793-6.789 6.789 6.789 0 0 0-6.79 6.789 6.788 6.788 0 0 0 6.79 6.79zm-97.02 0a6.792 6.792 0 0 0 6.794-6.791 6.793 6.793 0 0 0-13.584 0 6.79 6.79 0 0 0 6.79 6.79zm-97.016 0a6.793 6.793 0 0 0 6.792-6.791 6.792 6.792 0 0 0-13.584 0c0 3.75 3.04 6.79 6.792 6.79zm-97.016 0a6.79 6.79 0 0 0 0-13.58 6.793 6.793 0 0 0-6.794 6.789c0 3.75 3.04 6.79 6.794 6.79zm-19.404 0a6.79 6.79 0 0 0 0-13.58 6.795 6.795 0 0 0-6.794 6.789 6.794 6.794 0 0 0 6.794 6.79zm-19.404 0a6.791 6.791 0 0 0 6.792-6.791 6.792 6.792 0 0 0-6.792-6.789c-3.749 0-6.794 3.043-6.794 6.789a6.795 6.795 0 0 0 6.794 6.79zm-19.404 0a6.792 6.792 0 0 0 6.795-6.791 6.794 6.794 0 0 0-13.587 0 6.793 6.793 0 0 0 6.792 6.79zm-19.404 0a6.792 6.792 0 0 0 6.794-6.791 6.794 6.794 0 0 0-13.587 0 6.793 6.793 0 0 0 6.793 6.79zm-19.402 0a6.791 6.791 0 0 0 6.792-6.791 6.794 6.794 0 0 0-13.587 0 6.794 6.794 0 0 0 6.795 6.79zm-19.404 0a6.791 6.791 0 0 0 6.792-6.791 6.792 6.792 0 0 0-6.792-6.789c-3.749 0-6.795 3.043-6.795 6.789a6.795 6.795 0 0 0 6.795 6.79zm-38.808 0a6.794 6.794 0 0 0 6.794-6.791c0-3.746-3.043-6.789-6.794-6.789a6.79 6.79 0 0 0 0 13.58zm-38.806 0a6.791 6.791 0 0 0 6.792-6.791c0-3.746-3.04-6.789-6.792-6.789a6.79 6.79 0 0 0 0 13.58zm-19.404 0a6.792 6.792 0 0 0 6.794-6.791 6.793 6.793 0 0 0-13.584 0 6.79 6.79 0 0 0 6.79 6.79zm-19.402 0a6.791 6.791 0 0 0 6.792-6.791 6.792 6.792 0 0 0-13.584 0c0 3.75 3.04 6.79 6.792 6.79zm-38.808 0a6.79 6.79 0 1 0 0-13.58 6.79 6.79 0 0 0 0 13.58zm-19.404 0a6.794 6.794 0 0 0 6.797-6.791c0-3.746-3.043-6.789-6.797-6.789a6.794 6.794 0 0 0-6.792 6.789 6.793 6.793 0 0 0 6.792 6.79zm-77.614 0a6.794 6.794 0 0 0 6.794-6.791 6.795 6.795 0 0 0-13.586 0 6.793 6.793 0 0 0 6.792 6.79zm-19.402 0a6.791 6.791 0 0 0 6.792-6.791 6.792 6.792 0 0 0-13.584 0c0 3.75 3.04 6.79 6.792 6.79zm-19.404 0a6.791 6.791 0 0 0 6.792-6.791 6.792 6.792 0 0 0-13.584 0c0 3.75 3.04 6.79 6.792 6.79zm-19.402 0a6.79 6.79 0 1 0 0-13.58 6.79 6.79 0 1 0 0 13.58zm1028.385 19.4c3.746 0 6.79-3.04 6.79-6.786a6.795 6.795 0 0 0-6.79-6.793 6.797 6.797 0 0 0-6.795 6.793c0 3.746 3.046 6.787 6.795 6.787zm-19.41 0a6.79 6.79 0 0 0 6.795-6.786c0-3.75-3.04-6.793-6.794-6.793-3.744 0-6.788 3.043-6.788 6.793a6.79 6.79 0 0 0 6.788 6.787zm-19.404 0a6.791 6.791 0 0 0 6.795-6.786c0-3.75-3.04-6.793-6.795-6.793-3.741 0-6.787 3.043-6.787 6.793a6.792 6.792 0 0 0 6.787 6.787zm-19.399 0a6.79 6.79 0 1 0 0-13.579 6.792 6.792 0 0 0-6.792 6.793 6.789 6.789 0 0 0 6.792 6.787zm-19.406 0a6.789 6.789 0 0 0 6.792-6.786 6.792 6.792 0 0 0-6.792-6.793 6.79 6.79 0 0 0 0 13.58zm-19.402 0a6.789 6.789 0 0 0 6.792-6.786 6.792 6.792 0 1 0-13.582 0 6.79 6.79 0 0 0 6.79 6.787zm-19.4 0c3.752 0 6.79-3.04 6.79-6.786a6.791 6.791 0 1 0-13.581 0 6.789 6.789 0 0 0 6.792 6.787zm-19.406 0c3.754 0 6.79-3.04 6.79-6.786a6.79 6.79 0 1 0-6.79 6.787zm-19.402 0a6.79 6.79 0 1 0 0-13.579 6.795 6.795 0 0 0-6.792 6.793 6.792 6.792 0 0 0 6.792 6.787zm-19.406 0a6.79 6.79 0 0 0 6.795-6.786c0-3.75-3.041-6.793-6.795-6.793a6.795 6.795 0 0 0-6.79 6.793 6.791 6.791 0 0 0 6.79 6.787zm-19.402 0c3.752 0 6.795-3.04 6.795-6.786A6.796 6.796 0 0 0 938.158 97a6.797 6.797 0 0 0-6.792 6.793c0 3.746 3.046 6.787 6.792 6.787zm-19.401 0c3.744 0 6.792-3.04 6.792-6.786A6.798 6.798 0 0 0 918.757 97a6.797 6.797 0 0 0-6.793 6.793c0 3.746 3.046 6.787 6.793 6.787zm-19.407 0c3.746 0 6.795-3.04 6.795-6.786a6.791 6.791 0 1 0-13.584 0 6.788 6.788 0 0 0 6.789 6.787zm-19.404 0c3.749 0 6.797-3.04 6.797-6.786a6.795 6.795 0 0 0-13.59 0 6.792 6.792 0 0 0 6.793 6.787zm-19.404 0c3.749 0 6.797-3.04 6.797-6.786 0-3.75-3.048-6.793-6.797-6.793s-6.785 3.043-6.785 6.793a6.786 6.786 0 0 0 6.785 6.787zm-19.404 0c3.751 0 6.797-3.04 6.797-6.786 0-3.75-3.046-6.793-6.797-6.793s-6.79 3.043-6.79 6.793a6.788 6.788 0 0 0 6.79 6.787zm-19.4 0a6.792 6.792 0 0 0 6.793-6.786 6.79 6.79 0 1 0-13.582 0 6.787 6.787 0 0 0 6.79 6.787zm-19.409 0c3.754 0 6.797-3.04 6.797-6.786A6.796 6.796 0 0 0 802.33 97a6.789 6.789 0 0 0-6.784 6.793 6.786 6.786 0 0 0 6.784 6.787zm-19.396 0a6.79 6.79 0 0 0 0-13.579 6.79 6.79 0 1 0 0 13.58zm-58.215 0a6.79 6.79 0 0 0 6.794-6.786 6.793 6.793 0 1 0-13.584 0 6.79 6.79 0 0 0 6.79 6.787zm-194.032 0a6.79 6.79 0 1 0-.007-13.578 6.79 6.79 0 0 0 .007 13.579zm-19.404 0a6.79 6.79 0 0 0 0-13.579 6.796 6.796 0 0 0-6.794 6.793c0 3.746 3.043 6.787 6.794 6.787zm-19.404 0a6.79 6.79 0 1 0 0-13.579 6.797 6.797 0 0 0-6.794 6.793c0 3.746 3.045 6.787 6.794 6.787zm-19.404 0a6.79 6.79 0 0 0 6.795-6.786 6.794 6.794 0 0 0-13.587 0 6.792 6.792 0 0 0 6.792 6.787zm-19.404 0a6.79 6.79 0 0 0 6.794-6.786 6.794 6.794 0 0 0-13.586 0 6.792 6.792 0 0 0 6.792 6.787zm-77.614 0c3.751 0 6.794-3.04 6.794-6.786a6.792 6.792 0 1 0-13.584 0 6.788 6.788 0 0 0 6.79 6.787zm-19.404 0c3.751 0 6.794-3.04 6.794-6.786a6.792 6.792 0 1 0-13.584 0 6.788 6.788 0 0 0 6.79 6.787zm-19.402 0a6.79 6.79 0 1 0-6.79-6.786 6.788 6.788 0 0 0 6.79 6.787zm-19.404 0a6.79 6.79 0 0 0 6.794-6.786 6.791 6.791 0 1 0-13.584 0 6.788 6.788 0 0 0 6.79 6.787zm-38.806 0a6.79 6.79 0 1 0 0-13.579 6.79 6.79 0 1 0 0 13.58zm-19.404 0a6.789 6.789 0 0 0 6.792-6.786 6.792 6.792 0 1 0-13.582 0 6.79 6.79 0 0 0 6.79 6.787zm-38.806 0c3.752 0 6.795-3.04 6.795-6.786a6.796 6.796 0 0 0-13.59 0c0 3.746 3.044 6.787 6.795 6.787zm-19.404 0a6.79 6.79 0 1 0 0-13.579 6.796 6.796 0 0 0-6.795 6.793c0 3.746 3.044 6.787 6.795 6.787zm-19.404 0a6.79 6.79 0 1 0 0-13.579 6.797 6.797 0 0 0-6.795 6.793c0 3.746 3.046 6.787 6.795 6.787zm-19.404 0c3.751 0 6.794-3.04 6.794-6.786A6.796 6.796 0 0 0 162.018 97a6.795 6.795 0 0 0-6.792 6.793 6.792 6.792 0 0 0 6.792 6.787zm-19.402 0a6.79 6.79 0 1 0 0-13.579 6.79 6.79 0 1 0 0 13.58zm-19.404 0a6.79 6.79 0 1 0 0-13.579 6.79 6.79 0 1 0 0 13.58zm-19.402 0c3.752 0 6.79-3.04 6.79-6.786a6.791 6.791 0 1 0-13.582 0 6.789 6.789 0 0 0 6.792 6.787zm-19.404 0a6.79 6.79 0 1 0 0-13.579 6.792 6.792 0 0 0-6.792 6.793 6.789 6.789 0 0 0 6.792 6.787zm1008.975 19.402c8.87 0 8.863-13.58 0-13.58-3.741 0-6.787 3.043-6.787 6.793a6.792 6.792 0 0 0 6.787 6.787zm-19.399 0a6.79 6.79 0 1 0 0-13.58 6.792 6.792 0 0 0-6.792 6.793 6.789 6.789 0 0 0 6.792 6.787zm-19.406 0a6.789 6.789 0 0 0 6.792-6.787 6.792 6.792 0 0 0-6.792-6.793 6.79 6.79 0 0 0 0 13.58zm-19.402 0a6.789 6.789 0 0 0 6.792-6.787 6.792 6.792 0 1 0-13.582 0 6.79 6.79 0 0 0 6.79 6.787zm-19.4 0a6.791 6.791 0 1 0-6.792-6.786 6.789 6.789 0 0 0 6.793 6.786zm-19.406 0c3.754 0 6.79-3.04 6.79-6.787a6.79 6.79 0 1 0-6.79 6.787zm-19.402 0a6.79 6.79 0 1 0 0-13.58 6.795 6.795 0 0 0-6.792 6.793 6.792 6.792 0 0 0 6.792 6.787zm-19.406 0a6.79 6.79 0 0 0 6.795-6.787c0-3.75-3.041-6.793-6.795-6.793a6.795 6.795 0 0 0-6.79 6.793 6.791 6.791 0 0 0 6.79 6.787zm-19.402 0c3.752 0 6.795-3.04 6.795-6.787a6.796 6.796 0 0 0-6.795-6.793 6.797 6.797 0 0 0-6.792 6.793c0 3.746 3.046 6.787 6.792 6.787zm-19.401 0c3.744 0 6.792-3.04 6.792-6.787a6.798 6.798 0 0 0-6.792-6.793 6.797 6.797 0 0 0-6.793 6.793c0 3.746 3.046 6.787 6.793 6.787zm-19.407 0c3.746 0 6.795-3.04 6.795-6.787a6.791 6.791 0 1 0-13.584 0 6.788 6.788 0 0 0 6.789 6.787zm-19.404 0c3.749 0 6.797-3.04 6.797-6.787a6.795 6.795 0 0 0-13.59 0 6.792 6.792 0 0 0 6.793 6.787zm-19.404 0c3.749 0 6.797-3.04 6.797-6.787 0-3.75-3.048-6.793-6.797-6.793s-6.785 3.043-6.785 6.793a6.786 6.786 0 0 0 6.785 6.787zm-19.404 0c3.751 0 6.797-3.04 6.797-6.787 0-3.75-3.046-6.793-6.797-6.793s-6.79 3.043-6.79 6.793a6.788 6.788 0 0 0 6.79 6.787zm-19.4 0a6.792 6.792 0 0 0 6.793-6.787 6.79 6.79 0 1 0-13.582 0 6.787 6.787 0 0 0 6.79 6.787zm-19.409 0c3.754 0 6.797-3.04 6.797-6.787a6.796 6.796 0 0 0-6.797-6.793 6.789 6.789 0 0 0-6.784 6.793 6.786 6.786 0 0 0 6.784 6.787zm-19.396 0a6.79 6.79 0 0 0 0-13.58 6.79 6.79 0 1 0 0 13.58zm-38.811 0c3.751 0 6.794-3.04 6.794-6.787a6.796 6.796 0 0 0-6.794-6.793 6.795 6.795 0 0 0-6.792 6.793 6.792 6.792 0 0 0 6.792 6.787zm-232.84 0a6.79 6.79 0 0 0 0-13.58 6.796 6.796 0 0 0-6.794 6.793c0 3.746 3.043 6.787 6.794 6.787zm-19.404 0a6.79 6.79 0 1 0 0-13.58 6.797 6.797 0 0 0-6.794 6.793c0 3.746 3.045 6.787 6.794 6.787zm-19.404 0a6.79 6.79 0 0 0 6.795-6.787 6.794 6.794 0 0 0-13.587 0 6.792 6.792 0 0 0 6.792 6.787zm-19.404 0a6.79 6.79 0 0 0 6.794-6.787 6.794 6.794 0 0 0-13.586 0 6.792 6.792 0 0 0 6.792 6.787zm-77.614 0c3.751 0 6.794-3.04 6.794-6.787a6.792 6.792 0 1 0-13.584 0 6.788 6.788 0 0 0 6.79 6.787zm-19.404 0c3.751 0 6.794-3.04 6.794-6.787a6.792 6.792 0 1 0-13.584 0 6.788 6.788 0 0 0 6.79 6.787zm-19.402 0a6.79 6.79 0 1 0-6.79-6.787 6.788 6.788 0 0 0 6.79 6.787zm-19.404 0a6.79 6.79 0 0 0 6.794-6.787 6.791 6.791 0 1 0-13.584 0 6.788 6.788 0 0 0 6.79 6.787zm-38.806 0a6.79 6.79 0 1 0 0-13.58 6.79 6.79 0 1 0 0 13.58zm-19.404 0a6.789 6.789 0 0 0 6.792-6.787 6.792 6.792 0 1 0-13.582 0 6.79 6.79 0 0 0 6.79 6.787zm-19.404 0c3.754 0 6.797-3.04 6.797-6.787a6.795 6.795 0 0 0-13.59 0 6.792 6.792 0 0 0 6.793 6.787zm-19.402 0c3.752 0 6.795-3.04 6.795-6.787a6.796 6.796 0 0 0-13.59 0c0 3.746 3.044 6.787 6.795 6.787zm-19.404 0a6.79 6.79 0 1 0 0-13.58 6.796 6.796 0 0 0-6.795 6.793c0 3.746 3.044 6.787 6.795 6.787zm-19.404 0a6.79 6.79 0 1 0 0-13.58 6.797 6.797 0 0 0-6.795 6.793c0 3.746 3.046 6.787 6.795 6.787zm-19.404 0c3.751 0 6.794-3.04 6.794-6.787a6.796 6.796 0 0 0-6.794-6.793 6.795 6.795 0 0 0-6.792 6.793 6.792 6.792 0 0 0 6.792 6.787zm-19.402 0a6.79 6.79 0 1 0 0-13.58 6.79 6.79 0 1 0 0 13.58zm-19.404 0a6.79 6.79 0 1 0 0-13.58 6.79 6.79 0 1 0 0 13.58zm-19.402 0a6.791 6.791 0 1 0-6.792-6.786 6.789 6.789 0 0 0 6.792 6.786zm-19.404 0a6.79 6.79 0 1 0 0-13.58 6.792 6.792 0 0 0-6.792 6.793 6.789 6.789 0 0 0 6.792 6.787zm1028.38 19.4a6.794 6.794 0 0 0 6.794-6.793c0-3.743-3.04-6.786-6.794-6.786a6.793 6.793 0 0 0-6.788 6.786c0 3.75 3.044 6.794 6.788 6.794zm-19.405 0a6.794 6.794 0 0 0 6.795-6.793c0-3.743-3.04-6.786-6.795-6.786a6.794 6.794 0 0 0-6.787 6.786c0 3.75 3.046 6.794 6.787 6.794zm-38.805 0a6.79 6.79 0 1 0-6.787-6.793c0 3.75 3.04 6.794 6.787 6.794zm-19.402 0a6.79 6.79 0 1 0 0-13.58 6.791 6.791 0 0 0-6.79 6.787c0 3.75 3.041 6.794 6.79 6.794zm-19.4 0a6.79 6.79 0 0 0 0-13.58 6.79 6.79 0 1 0 0 13.58zm-19.406 0a6.79 6.79 0 1 0 0-13.58 6.79 6.79 0 0 0 0 13.58zm-19.402 0a6.794 6.794 0 0 0 6.793-6.793 6.792 6.792 0 0 0-13.585 0 6.795 6.795 0 0 0 6.792 6.794zm-19.406 0a6.794 6.794 0 0 0 6.795-6.793 6.793 6.793 0 0 0-13.584 0 6.795 6.795 0 0 0 6.789 6.794zm-19.402 0a6.796 6.796 0 0 0 6.795-6.793c0-3.743-3.043-6.786-6.795-6.786-3.746 0-6.792 3.043-6.792 6.786a6.797 6.797 0 0 0 6.792 6.794zm-19.401 0a6.798 6.798 0 0 0 6.792-6.793c0-3.743-3.048-6.786-6.792-6.786-3.747 0-6.793 3.043-6.793 6.786a6.797 6.797 0 0 0 6.793 6.794zm-19.407 0a6.799 6.799 0 0 0 6.795-6.793c0-3.743-3.049-6.786-6.795-6.786a6.79 6.79 0 0 0 0 13.58zm-19.404 0a6.8 6.8 0 0 0 6.797-6.793c0-3.743-3.048-6.786-6.797-6.786s-6.792 3.043-6.792 6.786a6.795 6.795 0 0 0 6.792 6.794zm-19.404 0a6.8 6.8 0 0 0 6.797-6.793c0-3.743-3.048-6.786-6.797-6.786s-6.785 3.043-6.785 6.786a6.789 6.789 0 0 0 6.785 6.794zm-19.404 0a6.798 6.798 0 0 0 6.797-6.793c0-3.743-3.046-6.786-6.797-6.786a6.79 6.79 0 0 0 0 13.58zm-19.4 0a6.795 6.795 0 0 0 6.793-6.793c0-3.743-3.044-6.786-6.793-6.786a6.79 6.79 0 0 0 0 13.58zm-19.409 0a6.796 6.796 0 0 0 6.797-6.793c0-3.743-3.043-6.786-6.797-6.786a6.787 6.787 0 0 0-6.784 6.786 6.789 6.789 0 0 0 6.784 6.794zm-19.396 0a6.793 6.793 0 0 0 6.79-6.793 6.791 6.791 0 0 0-6.79-6.786 6.79 6.79 0 1 0 0 13.58zm-19.402 0a6.79 6.79 0 0 0 0-13.58 6.79 6.79 0 1 0 0 13.58zm-19.41 0a6.796 6.796 0 0 0 6.795-6.793c0-3.743-3.043-6.786-6.794-6.786-3.749 0-6.792 3.043-6.792 6.786a6.795 6.795 0 0 0 6.792 6.794zm-19.403 0a6.794 6.794 0 0 0 6.794-6.793c0-3.743-3.04-6.786-6.794-6.786a6.791 6.791 0 0 0-6.79 6.786c0 3.75 3.04 6.794 6.79 6.794zm-38.808 0a6.795 6.795 0 0 0 6.797-6.793c0-3.743-3.041-6.786-6.797-6.786-3.745 0-6.79 3.043-6.79 6.786a6.796 6.796 0 0 0 6.79 6.794zm-19.4 0a6.795 6.795 0 0 0 6.792-6.793c0-3.743-3.043-6.786-6.792-6.786s-6.792 3.043-6.792 6.786a6.795 6.795 0 0 0 6.792 6.794zm-19.406 0a6.794 6.794 0 0 0 6.794-6.793 6.793 6.793 0 0 0-13.584 0 6.795 6.795 0 0 0 6.79 6.794zm-19.402 0a6.795 6.795 0 0 0 6.792-6.793 6.792 6.792 0 0 0-13.584 0c0 3.75 3.04 6.794 6.792 6.794zm-116.42 0a6.793 6.793 0 0 0 6.79-6.793 6.791 6.791 0 0 0-6.79-6.786c-3.751 0-6.794 3.043-6.794 6.786a6.796 6.796 0 0 0 6.794 6.794zm-19.404 0a6.794 6.794 0 0 0 6.792-6.793 6.792 6.792 0 0 0-6.792-6.786c-3.749 0-6.794 3.043-6.794 6.786a6.797 6.797 0 0 0 6.794 6.794zm-19.404 0a6.794 6.794 0 0 0 6.795-6.793c0-3.743-3.041-6.786-6.795-6.786-3.749 0-6.792 3.043-6.792 6.786a6.795 6.795 0 0 0 6.792 6.794zm-19.404 0a6.794 6.794 0 0 0 6.794-6.793c0-3.743-3.04-6.786-6.794-6.786-3.749 0-6.792 3.043-6.792 6.786a6.795 6.795 0 0 0 6.792 6.794zm-19.402 0a6.794 6.794 0 0 0 6.792-6.793c0-3.743-3.04-6.786-6.792-6.786s-6.794 3.043-6.794 6.786a6.796 6.796 0 0 0 6.794 6.794zm-38.808 0a6.795 6.795 0 0 0 6.792-6.793c0-3.743-3.043-6.786-6.792-6.786s-6.795 3.043-6.795 6.786a6.797 6.797 0 0 0 6.795 6.794zm-19.404 0a6.796 6.796 0 0 0 6.794-6.793c0-3.743-3.043-6.786-6.794-6.786a6.79 6.79 0 0 0 0 13.58zm-38.806 0a6.794 6.794 0 0 0 6.792-6.793 6.792 6.792 0 0 0-13.582 0 6.791 6.791 0 0 0 6.79 6.794zm-19.404 0a6.794 6.794 0 0 0 6.794-6.793c0-3.743-3.04-6.786-6.794-6.786a6.79 6.79 0 0 0 0 13.58zm-19.402 0a6.794 6.794 0 0 0 6.792-6.793 6.792 6.792 0 0 0-6.792-6.786 6.792 6.792 0 0 0-6.792 6.786c0 3.75 3.04 6.794 6.792 6.794zm-19.404 0a6.794 6.794 0 0 0 6.792-6.793c0-3.743-3.04-6.786-6.792-6.786s-6.792 3.043-6.792 6.786c0 3.75 3.04 6.794 6.792 6.794zm-19.404 0a6.79 6.79 0 1 0 0-13.58 6.791 6.791 0 0 0-6.79 6.787c0 3.75 3.041 6.794 6.79 6.794zm-19.404 0a6.796 6.796 0 0 0 6.797-6.793c0-3.743-3.043-6.786-6.797-6.786-3.749 0-6.792 3.043-6.792 6.786a6.795 6.795 0 0 0 6.792 6.794zm-19.402 0a6.796 6.796 0 0 0 6.795-6.793c0-3.743-3.043-6.786-6.795-6.786s-6.794 3.043-6.794 6.786a6.796 6.796 0 0 0 6.794 6.794zm-19.404 0a6.794 6.794 0 0 0 6.792-6.793c0-3.743-3.04-6.786-6.792-6.786s-6.795 3.043-6.795 6.786a6.796 6.796 0 0 0 6.795 6.794zm-19.404 0a6.794 6.794 0 0 0 6.792-6.793 6.792 6.792 0 0 0-6.792-6.786c-3.749 0-6.795 3.043-6.795 6.786a6.797 6.797 0 0 0 6.795 6.794zm-19.404 0a6.796 6.796 0 0 0 6.794-6.793c0-3.743-3.043-6.786-6.794-6.786-3.75 0-6.792 3.043-6.792 6.786a6.795 6.795 0 0 0 6.792 6.794zm-19.402 0a6.794 6.794 0 0 0 6.792-6.793c0-3.743-3.04-6.786-6.792-6.786s-6.792 3.043-6.792 6.786c0 3.75 3.04 6.794 6.792 6.794zm-19.404 0a6.794 6.794 0 0 0 6.792-6.793c0-3.743-3.04-6.786-6.792-6.786s-6.792 3.043-6.792 6.786c0 3.75 3.04 6.794 6.792 6.794zm-19.402 0a6.79 6.79 0 0 0 0-13.58 6.79 6.79 0 1 0 0 13.58zm-19.404 0a6.794 6.794 0 0 0 6.792-6.793 6.792 6.792 0 0 0-6.792-6.786 6.79 6.79 0 1 0 0 13.58zm-19.404 0a6.794 6.794 0 0 0 6.792-6.793c0-3.743-3.04-6.786-6.792-6.786s-6.792 3.043-6.792 6.786c0 3.75 3.04 6.794 6.792 6.794zm1047.784 19.4a6.79 6.79 0 0 0 6.794-6.787 6.792 6.792 0 0 0-13.582 0 6.79 6.79 0 0 0 6.788 6.786zm-19.405 0a6.791 6.791 0 0 0 6.795-6.787 6.792 6.792 0 0 0-13.582 0 6.792 6.792 0 0 0 6.787 6.786zm-77.606 0a6.788 6.788 0 1 0 0-13.578 6.789 6.789 0 1 0 0 13.577zm-19.407 0c3.754 0 6.79-3.041 6.79-6.787a6.79 6.79 0 1 0-13.58 0 6.79 6.79 0 0 0 6.79 6.786zm-19.402 0a6.79 6.79 0 0 0 6.793-6.787 6.793 6.793 0 0 0-13.584 0 6.792 6.792 0 0 0 6.791 6.786zm-19.406 0a6.79 6.79 0 0 0 6.795-6.787 6.792 6.792 0 0 0-13.585 0 6.791 6.791 0 0 0 6.79 6.786zm-19.402 0c3.752 0 6.795-3.041 6.795-6.787a6.794 6.794 0 0 0-13.587 0c0 3.746 3.046 6.786 6.792 6.786zm-19.401 0c3.744 0 6.792-3.041 6.792-6.787a6.796 6.796 0 0 0-6.792-6.791 6.795 6.795 0 0 0-6.793 6.791c0 3.746 3.046 6.786 6.793 6.786zm-19.407 0c3.746 0 6.795-3.041 6.795-6.787a6.797 6.797 0 0 0-6.795-6.791 6.79 6.79 0 1 0 0 13.577zm-19.404 0c3.749 0 6.797-3.041 6.797-6.787 0-3.75-3.048-6.791-6.797-6.791s-6.792 3.04-6.792 6.791a6.792 6.792 0 0 0 6.792 6.786zm-19.404 0c3.749 0 6.797-3.041 6.797-6.787 0-3.75-3.048-6.791-6.797-6.791s-6.785 3.04-6.785 6.791a6.786 6.786 0 0 0 6.785 6.786zm-19.404 0c3.751 0 6.797-3.041 6.797-6.787 0-3.75-3.046-6.791-6.797-6.791a6.79 6.79 0 1 0 0 13.577zm-19.4 0a6.792 6.792 0 0 0 6.793-6.787 6.793 6.793 0 0 0-6.793-6.791 6.788 6.788 0 0 0-6.79 6.791 6.787 6.787 0 0 0 6.79 6.786zm-19.409 0c3.754 0 6.797-3.041 6.797-6.787a6.794 6.794 0 0 0-6.797-6.791 6.787 6.787 0 0 0-6.784 6.791 6.786 6.786 0 0 0 6.784 6.786zm-19.396 0a6.79 6.79 0 0 0 6.79-6.787 6.79 6.79 0 0 0-6.79-6.791 6.79 6.79 0 1 0 0 13.577zm-19.402 0a6.789 6.789 0 1 0-.008-13.579 6.789 6.789 0 0 0 .008 13.578zm-19.41 0c3.752 0 6.795-3.041 6.795-6.787a6.794 6.794 0 0 0-13.586 0 6.792 6.792 0 0 0 6.792 6.786zm-19.403 0a6.79 6.79 0 0 0 6.794-6.787 6.792 6.792 0 0 0-13.584 0 6.79 6.79 0 0 0 6.79 6.786zm-19.404 0c3.751 0 6.794-3.041 6.794-6.787a6.794 6.794 0 0 0-6.794-6.791 6.787 6.787 0 0 0-6.785 6.791 6.786 6.786 0 0 0 6.785 6.786zm-19.404 0c3.756 0 6.797-3.041 6.797-6.787a6.794 6.794 0 0 0-13.587 0c0 3.746 3.045 6.786 6.79 6.786zm-19.4 0a6.792 6.792 0 0 0 6.792-6.787 6.793 6.793 0 0 0-13.584 0 6.792 6.792 0 0 0 6.792 6.786zm-19.406 0a6.79 6.79 0 0 0 6.794-6.787 6.792 6.792 0 0 0-13.584 0 6.791 6.791 0 0 0 6.79 6.786zm-19.402 0a6.792 6.792 0 0 0 6.792-6.787 6.793 6.793 0 0 0-13.584 0 6.79 6.79 0 0 0 6.792 6.786zm-135.824 0a6.79 6.79 0 0 0 6.792-6.787c0-3.75-3.04-6.791-6.792-6.791a6.795 6.795 0 0 0-6.794 6.791c0 3.746 3.045 6.786 6.794 6.786zm-19.404 0a6.79 6.79 0 0 0 6.795-6.787c0-3.75-3.041-6.791-6.795-6.791a6.793 6.793 0 0 0-6.792 6.791 6.792 6.792 0 0 0 6.792 6.786zm-19.404 0a6.79 6.79 0 0 0 6.794-6.787 6.793 6.793 0 0 0-13.587 0 6.792 6.792 0 0 0 6.793 6.786zm-19.402 0a6.79 6.79 0 0 0 6.792-6.787c0-3.75-3.04-6.791-6.792-6.791s-6.794 3.04-6.794 6.791c0 3.746 3.043 6.786 6.794 6.786zm-38.808 0a6.792 6.792 0 0 0 6.792-6.787 6.793 6.793 0 0 0-13.587 0c0 3.746 3.046 6.786 6.795 6.786zm-19.404 0c3.751 0 6.794-3.041 6.794-6.787 0-3.75-3.043-6.791-6.794-6.791a6.79 6.79 0 1 0 0 13.577zm-19.404 0c3.751 0 6.794-3.041 6.794-6.787 0-3.75-3.043-6.791-6.794-6.791a6.79 6.79 0 1 0 0 13.577zm-19.402 0a6.79 6.79 0 0 0 6.792-6.787 6.791 6.791 0 0 0-13.582 0 6.788 6.788 0 0 0 6.79 6.786zm-19.404 0a6.79 6.79 0 0 0 6.794-6.787c0-3.75-3.04-6.791-6.794-6.791a6.79 6.79 0 1 0 0 13.577zm-19.402 0a6.79 6.79 0 0 0 6.792-6.787c0-3.75-3.04-6.791-6.792-6.791a6.791 6.791 0 0 0-6.792 6.791 6.79 6.79 0 0 0 6.792 6.786zm-19.404 0a6.79 6.79 0 0 0 6.792-6.787c0-3.75-3.04-6.791-6.792-6.791s-6.792 3.04-6.792 6.791a6.79 6.79 0 0 0 6.792 6.786zm-19.404 0a6.789 6.789 0 1 0 0-13.578 6.79 6.79 0 0 0-6.79 6.791 6.79 6.79 0 0 0 6.79 6.786zm-19.404 0c3.754 0 6.797-3.041 6.797-6.787a6.794 6.794 0 0 0-6.797-6.791 6.793 6.793 0 0 0-6.792 6.791 6.792 6.792 0 0 0 6.792 6.786zm-19.402 0c3.752 0 6.795-3.041 6.795-6.787 0-3.75-3.043-6.791-6.795-6.791s-6.794 3.04-6.794 6.791c0 3.746 3.043 6.786 6.794 6.786zm-19.404 0a6.79 6.79 0 0 0 6.792-6.787c0-3.75-3.04-6.791-6.792-6.791s-6.795 3.04-6.795 6.791c0 3.746 3.044 6.786 6.795 6.786zm-19.404 0a6.79 6.79 0 0 0 6.792-6.787c0-3.75-3.04-6.791-6.792-6.791a6.795 6.795 0 0 0-6.795 6.791c0 3.746 3.046 6.786 6.795 6.786zm-19.404 0c3.751 0 6.794-3.041 6.794-6.787a6.794 6.794 0 0 0-13.586 0 6.792 6.792 0 0 0 6.792 6.786zm-19.402 0a6.79 6.79 0 0 0 6.792-6.787c0-3.75-3.04-6.791-6.792-6.791s-6.792 3.04-6.792 6.791a6.79 6.79 0 0 0 6.792 6.786zm-19.404 0a6.79 6.79 0 0 0 6.792-6.787c0-3.75-3.04-6.791-6.792-6.791s-6.792 3.04-6.792 6.791a6.79 6.79 0 0 0 6.792 6.786zm-19.402 0a6.788 6.788 0 1 0 0-13.578 6.789 6.789 0 1 0 0 13.577zm-19.404 0a6.79 6.79 0 0 0 6.792-6.787c0-3.75-3.04-6.791-6.792-6.791a6.789 6.789 0 1 0 0 13.577zm-19.404 0a6.79 6.79 0 0 0 6.792-6.787c0-3.75-3.04-6.791-6.792-6.791s-6.792 3.04-6.792 6.791a6.79 6.79 0 0 0 6.792 6.786zm1047.784 19.4a6.79 6.79 0 1 0 .007-13.582 6.79 6.79 0 0 0-.007 13.582zm-97.011 0a6.79 6.79 0 0 0 0-13.58 6.79 6.79 0 1 0 0 13.58zm-19.407 0c3.754 0 6.79-3.04 6.79-6.786a6.788 6.788 0 0 0-6.79-6.794 6.79 6.79 0 0 0 0 13.58zm-38.808 0a6.79 6.79 0 1 0-6.79-6.786 6.791 6.791 0 0 0 6.79 6.786zm-19.402 0c3.752 0 6.795-3.04 6.795-6.786a6.794 6.794 0 0 0-13.587 0c0 3.746 3.046 6.786 6.792 6.786zm-19.401 0c3.744 0 6.792-3.04 6.792-6.786a6.797 6.797 0 0 0-6.792-6.794 6.795 6.795 0 0 0-6.793 6.794c0 3.746 3.046 6.786 6.793 6.786zm-19.407 0c3.746 0 6.795-3.04 6.795-6.786a6.797 6.797 0 0 0-6.795-6.794 6.79 6.79 0 0 0 0 13.58zm-19.404 0c3.749 0 6.797-3.04 6.797-6.786 0-3.753-3.048-6.794-6.797-6.794s-6.792 3.04-6.792 6.794a6.792 6.792 0 0 0 6.792 6.786zm-19.404 0c3.749 0 6.797-3.04 6.797-6.786 0-3.753-3.048-6.794-6.797-6.794s-6.785 3.04-6.785 6.794a6.786 6.786 0 0 0 6.785 6.786zm-19.404 0c3.751 0 6.797-3.04 6.797-6.786 0-3.753-3.046-6.794-6.797-6.794a6.79 6.79 0 0 0 0 13.58zm-19.4 0a6.792 6.792 0 0 0 6.793-6.786 6.794 6.794 0 0 0-6.793-6.794 6.788 6.788 0 0 0-6.79 6.794 6.787 6.787 0 0 0 6.79 6.786zm-19.409 0c3.754 0 6.797-3.04 6.797-6.786a6.795 6.795 0 0 0-6.797-6.794 6.787 6.787 0 0 0-6.784 6.794 6.786 6.786 0 0 0 6.784 6.786zm-19.396 0a6.79 6.79 0 0 0 0-13.58 6.79 6.79 0 1 0 0 13.58zm-19.402 0a6.79 6.79 0 0 0 0-13.58 6.79 6.79 0 1 0 0 13.58zm-19.41 0c3.752 0 6.795-3.04 6.795-6.786a6.794 6.794 0 0 0-13.586 0 6.792 6.792 0 0 0 6.792 6.786zm-19.403 0a6.79 6.79 0 1 0 0-13.58 6.79 6.79 0 0 0 0 13.58zm-19.404 0c3.751 0 6.794-3.04 6.794-6.786a6.794 6.794 0 0 0-6.794-6.794 6.787 6.787 0 0 0-6.785 6.794 6.786 6.786 0 0 0 6.785 6.786zm-19.404 0c3.756 0 6.797-3.04 6.797-6.786a6.793 6.793 0 1 0-13.587 0c0 3.746 3.045 6.786 6.79 6.786zm-19.4 0a6.792 6.792 0 0 0 6.792-6.786c0-3.753-3.043-6.794-6.792-6.794s-6.792 3.04-6.792 6.794a6.792 6.792 0 0 0 6.792 6.786zm-38.808 0a6.792 6.792 0 0 0 6.792-6.786 6.792 6.792 0 1 0-13.584 0 6.79 6.79 0 0 0 6.792 6.786zm-19.404 0a6.792 6.792 0 0 0 6.792-6.786 6.792 6.792 0 1 0-13.584 0 6.79 6.79 0 0 0 6.792 6.786zm-77.612 0a6.788 6.788 0 0 0 6.788-6.786 6.79 6.79 0 0 0-6.788-6.794 6.79 6.79 0 1 0 0 13.58zm-19.404 0a6.79 6.79 0 0 0 0-13.58 6.794 6.794 0 0 0-6.794 6.794c0 3.746 3.043 6.786 6.794 6.786zm-58.212 0a6.79 6.79 0 1 0 0-13.58 6.794 6.794 0 0 0-6.792 6.794 6.792 6.792 0 0 0 6.792 6.786zm-19.402 0a6.79 6.79 0 1 0 0-13.58 6.794 6.794 0 0 0-6.794 6.794c0 3.746 3.043 6.786 6.794 6.786zm-58.212 0c3.751 0 6.794-3.04 6.794-6.786 0-3.753-3.043-6.794-6.794-6.794a6.79 6.79 0 0 0 0 13.58zm-77.612 0a6.79 6.79 0 1 0 0-13.58 6.79 6.79 0 1 0 0 13.58zm-19.404 0a6.79 6.79 0 1 0 0-13.58 6.79 6.79 0 1 0 0 13.58zm-19.404 0a6.79 6.79 0 1 0-6.79-6.786 6.79 6.79 0 0 0 6.79 6.786zm-19.404 0c3.754 0 6.797-3.04 6.797-6.786a6.795 6.795 0 0 0-13.59 0 6.792 6.792 0 0 0 6.793 6.786zm-19.402 0c3.752 0 6.795-3.04 6.795-6.786 0-3.753-3.043-6.794-6.795-6.794s-6.794 3.04-6.794 6.794c0 3.746 3.043 6.786 6.794 6.786zm-19.404 0a6.79 6.79 0 1 0 0-13.58 6.794 6.794 0 0 0-6.795 6.794c0 3.746 3.044 6.786 6.795 6.786zm-19.404 0a6.79 6.79 0 1 0 0-13.58 6.796 6.796 0 0 0-6.795 6.794c0 3.746 3.046 6.786 6.795 6.786zm-19.404 0c3.751 0 6.794-3.04 6.794-6.786a6.794 6.794 0 0 0-13.586 0 6.792 6.792 0 0 0 6.792 6.786zm-77.612 0a6.79 6.79 0 1 0 0-13.58 6.79 6.79 0 1 0 0 13.58zm-19.404 0a6.79 6.79 0 1 0 0-13.58 6.79 6.79 0 1 0 0 13.58zm-19.402 0a6.792 6.792 0 0 0 6.793-6.786 6.792 6.792 0 1 0-13.584 0 6.79 6.79 0 0 0 6.791 6.786zm1067.186 19.401a6.792 6.792 0 0 0 6.794-6.791 6.791 6.791 0 0 0-13.582 0 6.792 6.792 0 0 0 6.788 6.791zm-58.21 0a6.79 6.79 0 1 0 .004-13.58 6.79 6.79 0 0 0-.004 13.58zm-19.402 0a6.79 6.79 0 1 0 0-13.58 6.79 6.79 0 0 0 0 13.58zm-19.4 0a6.79 6.79 0 0 0 6.79-6.791 6.789 6.789 0 0 0-6.79-6.789 6.79 6.79 0 1 0 0 13.58zm-19.406 0c3.754 0 6.79-3.04 6.79-6.791a6.79 6.79 0 1 0-6.79 6.791zm-19.402 0a6.79 6.79 0 1 0 0-13.58 6.792 6.792 0 0 0-6.792 6.789 6.793 6.793 0 0 0 6.792 6.791zm-38.808 0a6.794 6.794 0 0 0 6.795-6.791 6.794 6.794 0 0 0-13.587 0 6.795 6.795 0 0 0 6.792 6.791zm-19.401 0a6.796 6.796 0 0 0 6.792-6.791c0-3.748-3.048-6.789-6.792-6.789a6.794 6.794 0 0 0-6.793 6.789 6.795 6.795 0 0 0 6.793 6.791zm-19.407 0a6.797 6.797 0 0 0 6.795-6.791c0-3.748-3.049-6.789-6.795-6.789a6.789 6.789 0 0 0-6.79 6.789 6.79 6.79 0 0 0 6.79 6.791zm-19.404 0c3.749 0 6.797-3.04 6.797-6.791 0-3.748-3.048-6.789-6.797-6.789s-6.792 3.04-6.792 6.789a6.793 6.793 0 0 0 6.792 6.791zm-19.404 0c3.749 0 6.797-3.04 6.797-6.791 0-3.748-3.048-6.789-6.797-6.789s-6.785 3.04-6.785 6.789a6.787 6.787 0 0 0 6.785 6.791zm-19.404 0a6.796 6.796 0 0 0 6.797-6.791c0-3.748-3.046-6.789-6.797-6.789s-6.79 3.04-6.79 6.789a6.79 6.79 0 0 0 6.79 6.791zm-19.4 0a6.793 6.793 0 0 0 6.793-6.791 6.792 6.792 0 0 0-6.793-6.789 6.787 6.787 0 0 0-6.79 6.789 6.788 6.788 0 0 0 6.79 6.791zm-19.409 0a6.794 6.794 0 0 0 6.797-6.791 6.794 6.794 0 0 0-6.797-6.789 6.786 6.786 0 0 0-6.784 6.789 6.787 6.787 0 0 0 6.784 6.791zm-19.396 0a6.79 6.79 0 0 0 0-13.58 6.79 6.79 0 1 0 0 13.58zm-19.402 0a6.79 6.79 0 0 0 0-13.58 6.79 6.79 0 1 0 0 13.58zm-19.41 0a6.794 6.794 0 0 0 6.795-6.791 6.793 6.793 0 0 0-6.794-6.789 6.792 6.792 0 0 0-6.792 6.789 6.793 6.793 0 0 0 6.792 6.791zm-19.403 0a6.792 6.792 0 0 0 6.794-6.791 6.791 6.791 0 0 0-6.794-6.789 6.79 6.79 0 0 0 0 13.58zm-19.404 0a6.794 6.794 0 0 0 6.794-6.791 6.793 6.793 0 0 0-6.794-6.789 6.786 6.786 0 0 0-6.785 6.789 6.787 6.787 0 0 0 6.785 6.791zm-19.404 0a6.792 6.792 0 0 0 6.797-6.791 6.792 6.792 0 0 0-6.797-6.789 6.794 6.794 0 0 0-6.79 6.789 6.794 6.794 0 0 0 6.79 6.791zm-19.4 0a6.793 6.793 0 0 0 6.792-6.791 6.792 6.792 0 0 0-13.584 0 6.793 6.793 0 0 0 6.792 6.791zm-38.808 0a6.793 6.793 0 0 0 6.792-6.791 6.792 6.792 0 0 0-13.584 0c0 3.75 3.04 6.791 6.792 6.791zm-19.404 0a6.793 6.793 0 0 0 6.792-6.791 6.792 6.792 0 0 0-13.584 0c0 3.75 3.04 6.791 6.792 6.791zm-155.228 0a6.792 6.792 0 0 0 6.794-6.791 6.791 6.791 0 0 0-6.794-6.789 6.792 6.792 0 0 0-6.792 6.789 6.793 6.793 0 0 0 6.792 6.791zm-19.402 0a6.79 6.79 0 1 0 0-13.58 6.793 6.793 0 0 0-6.794 6.789 6.794 6.794 0 0 0 6.794 6.791zm-77.616 0a6.794 6.794 0 0 0 6.794-6.791 6.793 6.793 0 0 0-13.584 0 6.79 6.79 0 0 0 6.79 6.791zm-19.402 0a6.79 6.79 0 1 0 .002-13.578 6.79 6.79 0 0 0-.002 13.578zm-58.21 0a6.79 6.79 0 1 0 0-13.58 6.79 6.79 0 1 0 0 13.58zm-19.404 0a6.79 6.79 0 1 0 0-13.58 6.79 6.79 0 0 0 0 13.58zm-19.404 0a6.794 6.794 0 0 0 6.797-6.791 6.794 6.794 0 0 0-6.797-6.789 6.792 6.792 0 0 0-6.792 6.789 6.793 6.793 0 0 0 6.792 6.791zm-19.402 0a6.794 6.794 0 0 0 6.795-6.791c0-3.748-3.043-6.789-6.795-6.789s-6.794 3.04-6.794 6.789a6.794 6.794 0 0 0 6.794 6.791zm-19.404 0a6.79 6.79 0 1 0 0-13.58 6.793 6.793 0 0 0-6.795 6.789 6.794 6.794 0 0 0 6.795 6.791zm-19.404 0a6.79 6.79 0 1 0 0-13.58c-3.749 0-6.795 3.04-6.795 6.789a6.795 6.795 0 0 0 6.795 6.791zm-19.404 0a6.794 6.794 0 0 0 6.794-6.791 6.793 6.793 0 0 0-6.794-6.789 6.792 6.792 0 0 0-6.792 6.789 6.793 6.793 0 0 0 6.792 6.791zm-116.418 0a6.793 6.793 0 0 0 6.793-6.791 6.792 6.792 0 0 0-13.585 0c0 3.75 3.041 6.791 6.792 6.791zm-19.406 0a6.792 6.792 0 0 0 6.794-6.791 6.791 6.791 0 0 0-6.794-6.789 6.79 6.79 0 0 0 0 13.58zm-19.404 0a6.792 6.792 0 0 0 6.794-6.791 6.791 6.791 0 0 0-6.794-6.789 6.79 6.79 0 0 0 0 13.58zm1067.192 19.399c3.752 0 6.792-3.04 6.792-6.784a6.79 6.79 0 0 0-6.792-6.794 6.789 6.789 0 1 0 0 13.578zm-19.406 0a6.788 6.788 0 1 0 0-13.578 6.79 6.79 0 0 0 0 13.578zm-19.402 0a6.788 6.788 0 1 0 0-13.578 6.79 6.79 0 1 0 0 13.577zm-19.4 0c3.752 0 6.79-3.04 6.79-6.784a6.788 6.788 0 0 0-6.79-6.794 6.789 6.789 0 1 0 0 13.578zm-19.406 0c3.754 0 6.79-3.04 6.79-6.784a6.787 6.787 0 0 0-6.79-6.794 6.79 6.79 0 1 0 0 13.577zm-19.402 0c3.752 0 6.793-3.04 6.793-6.784a6.792 6.792 0 1 0-13.584 0c0 3.743 3.043 6.784 6.791 6.784zm-19.406 0c3.754 0 6.795-3.04 6.795-6.784a6.79 6.79 0 0 0-6.795-6.794 6.791 6.791 0 0 0-6.79 6.794c0 3.743 3.043 6.784 6.79 6.784zm-19.402 0c3.752 0 6.795-3.04 6.795-6.784a6.794 6.794 0 0 0-13.587 0c0 3.743 3.046 6.784 6.792 6.784zm-19.401 0c3.744 0 6.792-3.04 6.792-6.784a6.795 6.795 0 0 0-6.792-6.794 6.794 6.794 0 0 0-6.793 6.794c0 3.743 3.046 6.784 6.793 6.784zm-19.407 0c3.746 0 6.795-3.04 6.795-6.784a6.796 6.796 0 0 0-6.795-6.794 6.788 6.788 0 0 0-6.79 6.794 6.788 6.788 0 0 0 6.79 6.784zm-19.404 0c3.749 0 6.797-3.04 6.797-6.784 0-3.756-3.048-6.794-6.797-6.794s-6.792 3.038-6.792 6.794c0 3.743 3.043 6.784 6.792 6.784zm-19.404 0c3.749 0 6.797-3.04 6.797-6.784 0-3.756-3.048-6.794-6.797-6.794s-6.785 3.038-6.785 6.794a6.785 6.785 0 0 0 6.785 6.784zm-19.404 0c3.751 0 6.797-3.04 6.797-6.784 0-3.756-3.046-6.794-6.797-6.794s-6.79 3.038-6.79 6.794a6.788 6.788 0 0 0 6.79 6.784zm-19.4 0c3.75 0 6.793-3.04 6.793-6.784a6.792 6.792 0 1 0-13.582 0 6.786 6.786 0 0 0 6.79 6.784zm-19.409 0c3.754 0 6.797-3.04 6.797-6.784a6.793 6.793 0 0 0-6.797-6.794 6.786 6.786 0 0 0-6.784 6.794 6.785 6.785 0 0 0 6.784 6.784zm-19.396 0a6.79 6.79 0 1 0 0-13.578 6.79 6.79 0 1 0 0 13.578zm-19.402 0a6.789 6.789 0 1 0-.008-13.577 6.789 6.789 0 0 0 .008 13.577zm-19.41 0c3.752 0 6.795-3.04 6.795-6.784a6.792 6.792 0 0 0-6.794-6.794 6.792 6.792 0 0 0-6.792 6.794c0 3.743 3.043 6.784 6.792 6.784zm-19.403 0c3.754 0 6.794-3.04 6.794-6.784a6.79 6.79 0 0 0-6.794-6.794 6.79 6.79 0 1 0 0 13.577zm-19.404 0c3.751 0 6.794-3.04 6.794-6.784a6.792 6.792 0 0 0-6.794-6.794 6.786 6.786 0 0 0-6.785 6.794 6.785 6.785 0 0 0 6.785 6.784zm-19.404 0c3.756 0 6.797-3.04 6.797-6.784a6.791 6.791 0 0 0-6.797-6.794 6.793 6.793 0 0 0-6.79 6.794c0 3.743 3.045 6.784 6.79 6.784zm-19.4 0c3.75 0 6.792-3.04 6.792-6.784a6.792 6.792 0 1 0-13.584 0c0 3.743 3.043 6.784 6.792 6.784zm-38.808 0c3.749 0 6.792-3.04 6.792-6.784a6.792 6.792 0 1 0-13.584 0c0 3.743 3.04 6.784 6.792 6.784zm-19.404 0c3.749 0 6.792-3.04 6.792-6.784a6.792 6.792 0 1 0-13.584 0c0 3.743 3.04 6.784 6.792 6.784zm-38.808 0c3.753 0 6.794-3.04 6.794-6.784a6.79 6.79 0 0 0-6.794-6.794 6.788 6.788 0 0 0-6.79 6.794 6.788 6.788 0 0 0 6.79 6.784zm-194.034 0c3.751 0 6.794-3.04 6.794-6.784 0-3.756-3.043-6.794-6.794-6.794s-6.79 3.038-6.79 6.794a6.788 6.788 0 0 0 6.79 6.784zm-19.404 0c3.751 0 6.794-3.04 6.794-6.784 0-3.756-3.043-6.794-6.794-6.794s-6.79 3.038-6.79 6.794a6.788 6.788 0 0 0 6.79 6.784zm-58.208 0c3.752 0 6.792-3.04 6.792-6.784a6.79 6.79 0 0 0-6.792-6.794 6.79 6.79 0 0 0-6.792 6.794c0 3.743 3.04 6.784 6.792 6.784zm-19.404 0c3.751 0 6.792-3.04 6.792-6.784 0-3.756-3.04-6.794-6.792-6.794s-6.792 3.038-6.792 6.794c0 3.743 3.04 6.784 6.792 6.784zm-19.404 0a6.788 6.788 0 1 0 0-13.578 6.79 6.79 0 1 0 0 13.577zm-19.404 0c3.754 0 6.797-3.04 6.797-6.784a6.793 6.793 0 0 0-6.797-6.794 6.792 6.792 0 0 0-6.792 6.794c0 3.743 3.043 6.784 6.792 6.784zm-19.402 0c3.752 0 6.795-3.04 6.795-6.784 0-3.756-3.043-6.794-6.795-6.794s-6.794 3.038-6.794 6.794c0 3.743 3.043 6.784 6.794 6.784zm-19.404 0c3.751 0 6.792-3.04 6.792-6.784 0-3.756-3.04-6.794-6.792-6.794s-6.795 3.038-6.795 6.794c0 3.743 3.044 6.784 6.795 6.784zm-19.404 0c3.751 0 6.792-3.04 6.792-6.784a6.794 6.794 0 0 0-13.587 0c0 3.743 3.046 6.784 6.795 6.784zm-19.404 0c3.751 0 6.794-3.04 6.794-6.784a6.792 6.792 0 0 0-6.794-6.794 6.792 6.792 0 0 0-6.792 6.794c0 3.743 3.043 6.784 6.792 6.784zm-19.402 0c3.751 0 6.792-3.04 6.792-6.784 0-3.756-3.04-6.794-6.792-6.794s-6.792 3.038-6.792 6.794c0 3.743 3.04 6.784 6.792 6.784zm950.765 19.4a6.791 6.791 0 0 0 6.795-6.786 6.792 6.792 0 0 0-13.582 0 6.792 6.792 0 0 0 6.787 6.787zm-38.805 0a6.789 6.789 0 1 0 0-13.577 6.79 6.79 0 0 0 0 13.577zm-19.402 0a6.789 6.789 0 1 0 0-13.577 6.79 6.79 0 0 0-6.79 6.791 6.79 6.79 0 0 0 6.79 6.787zm-19.4 0a6.788 6.788 0 1 0 0-13.577 6.789 6.789 0 1 0 0 13.577zm-19.406 0c3.754 0 6.79-3.04 6.79-6.786a6.79 6.79 0 1 0-13.58 0 6.79 6.79 0 0 0 6.79 6.787zm-19.402 0a6.79 6.79 0 0 0 6.793-6.786 6.793 6.793 0 0 0-13.584 0 6.792 6.792 0 0 0 6.791 6.787zm-19.406 0a6.79 6.79 0 0 0 6.795-6.786 6.792 6.792 0 0 0-13.585 0 6.791 6.791 0 0 0 6.79 6.787zm-19.402 0c3.752 0 6.795-3.04 6.795-6.786a6.794 6.794 0 0 0-13.587 0c0 3.746 3.046 6.787 6.792 6.787zm-19.401 0c3.744 0 6.792-3.04 6.792-6.786a6.796 6.796 0 0 0-6.792-6.79 6.795 6.795 0 0 0-6.793 6.79c0 3.746 3.046 6.787 6.793 6.787zm-19.407 0c3.746 0 6.795-3.04 6.795-6.786a6.797 6.797 0 0 0-6.795-6.79 6.79 6.79 0 1 0 0 13.577zm-19.404 0c3.749 0 6.797-3.04 6.797-6.786 0-3.75-3.048-6.79-6.797-6.79s-6.792 3.04-6.792 6.79a6.792 6.792 0 0 0 6.792 6.787zm-19.404 0c3.749 0 6.797-3.04 6.797-6.786 0-3.75-3.048-6.79-6.797-6.79s-6.785 3.04-6.785 6.79a6.786 6.786 0 0 0 6.785 6.787zm-19.404 0c3.751 0 6.797-3.04 6.797-6.786 0-3.75-3.046-6.79-6.797-6.79a6.79 6.79 0 1 0 0 13.577zm-19.4 0a6.792 6.792 0 0 0 6.793-6.786 6.793 6.793 0 0 0-6.793-6.79 6.788 6.788 0 0 0-6.79 6.79 6.787 6.787 0 0 0 6.79 6.787zm-19.409 0c3.754 0 6.797-3.04 6.797-6.786a6.794 6.794 0 0 0-6.797-6.79 6.787 6.787 0 0 0-6.784 6.79 6.786 6.786 0 0 0 6.784 6.787zm-19.396 0a6.79 6.79 0 0 0 6.79-6.786 6.79 6.79 0 0 0-6.79-6.79 6.79 6.79 0 1 0 0 13.577zm-19.402 0a6.789 6.789 0 1 0-.008-13.577 6.789 6.789 0 0 0 .008 13.578zm-19.41 0c3.752 0 6.795-3.04 6.795-6.786a6.794 6.794 0 0 0-13.586 0 6.792 6.792 0 0 0 6.792 6.787zm-19.403 0a6.79 6.79 0 0 0 6.794-6.786 6.792 6.792 0 0 0-13.584 0 6.79 6.79 0 0 0 6.79 6.787zm-19.404 0c3.751 0 6.794-3.04 6.794-6.786a6.794 6.794 0 0 0-6.794-6.79 6.787 6.787 0 0 0-6.785 6.79 6.786 6.786 0 0 0 6.785 6.787zm-19.404 0c3.756 0 6.797-3.04 6.797-6.786a6.794 6.794 0 0 0-13.587 0c0 3.746 3.045 6.787 6.79 6.787zm-19.4 0a6.792 6.792 0 0 0 6.792-6.786 6.793 6.793 0 0 0-13.584 0 6.792 6.792 0 0 0 6.792 6.787zm-19.406 0a6.79 6.79 0 0 0 6.794-6.786 6.792 6.792 0 0 0-13.584 0 6.791 6.791 0 0 0 6.79 6.787zm-19.402 0a6.792 6.792 0 0 0 6.792-6.786 6.793 6.793 0 0 0-13.584 0 6.79 6.79 0 0 0 6.792 6.787zm-19.404 0a6.792 6.792 0 0 0 6.792-6.786 6.793 6.793 0 0 0-13.584 0 6.79 6.79 0 0 0 6.792 6.787zm-19.404 0c3.751 0 6.794-3.04 6.794-6.786 0-3.75-3.043-6.79-6.794-6.79a6.79 6.79 0 1 0 0 13.577zm-19.404 0a6.79 6.79 0 0 0 6.794-6.786c0-3.75-3.04-6.79-6.794-6.79a6.79 6.79 0 1 0 0 13.577zm-19.402 0a6.79 6.79 0 0 0 6.792-6.786c0-3.75-3.04-6.79-6.792-6.79a6.789 6.789 0 1 0 0 13.577zm-155.228 0a6.792 6.792 0 0 0 6.792-6.786 6.793 6.793 0 0 0-13.587 0c0 3.746 3.046 6.787 6.795 6.787zm-19.404 0c3.751 0 6.794-3.04 6.794-6.786 0-3.75-3.043-6.79-6.794-6.79a6.79 6.79 0 1 0 0 13.577zm-19.404 0c3.751 0 6.794-3.04 6.794-6.786 0-3.75-3.043-6.79-6.794-6.79a6.79 6.79 0 1 0 0 13.577zm-19.402 0a6.79 6.79 0 0 0 6.792-6.786 6.791 6.791 0 0 0-13.582 0 6.788 6.788 0 0 0 6.79 6.787zm-19.404 0a6.79 6.79 0 0 0 6.794-6.786c0-3.75-3.04-6.79-6.794-6.79a6.79 6.79 0 1 0 0 13.577zm-19.402 0a6.79 6.79 0 0 0 6.792-6.786c0-3.75-3.04-6.79-6.792-6.79a6.791 6.791 0 0 0-6.792 6.79 6.79 6.79 0 0 0 6.792 6.787zm-19.404 0a6.79 6.79 0 0 0 6.792-6.786c0-3.75-3.04-6.79-6.792-6.79s-6.792 3.04-6.792 6.79a6.79 6.79 0 0 0 6.792 6.787zm-19.404 0a6.789 6.789 0 1 0 0-13.577 6.79 6.79 0 0 0-6.79 6.791 6.79 6.79 0 0 0 6.79 6.787zm-19.404 0c3.754 0 6.797-3.04 6.797-6.786a6.794 6.794 0 0 0-6.797-6.79 6.793 6.793 0 0 0-6.792 6.79 6.792 6.792 0 0 0 6.792 6.787zm-19.402 0c3.752 0 6.795-3.04 6.795-6.786 0-3.75-3.043-6.79-6.795-6.79s-6.794 3.04-6.794 6.79c0 3.746 3.043 6.787 6.794 6.787zm-19.404 0a6.79 6.79 0 0 0 6.792-6.786c0-3.75-3.04-6.79-6.792-6.79s-6.795 3.04-6.795 6.79c0 3.746 3.044 6.787 6.795 6.787zm-19.404 0a6.79 6.79 0 0 0 6.792-6.786c0-3.75-3.04-6.79-6.792-6.79a6.795 6.795 0 0 0-6.795 6.79c0 3.746 3.046 6.787 6.795 6.787zm-19.404 0c3.751 0 6.794-3.04 6.794-6.786a6.794 6.794 0 0 0-13.586 0 6.792 6.792 0 0 0 6.792 6.787zm-19.402 0a6.79 6.79 0 0 0 6.792-6.786c0-3.75-3.04-6.79-6.792-6.79s-6.792 3.04-6.792 6.79a6.79 6.79 0 0 0 6.792 6.787zm950.765 19.402a6.789 6.789 0 1 0 0-13.58 6.79 6.79 0 0 0 0 13.58zm-58.207 0a6.787 6.787 0 0 0 6.792-6.791 6.79 6.79 0 0 0-6.792-6.79 6.79 6.79 0 0 0 0 13.58zm-19.4 0a6.786 6.786 0 0 0 6.79-6.791 6.789 6.789 0 0 0-6.79-6.79 6.79 6.79 0 0 0-6.791 6.79 6.787 6.787 0 0 0 6.792 6.79zm-19.406 0a6.785 6.785 0 0 0 6.79-6.791 6.79 6.79 0 1 0-6.79 6.791zm-19.402 0a6.79 6.79 0 1 0 0-13.58 6.79 6.79 0 1 0 0 13.58zm-19.406 0a6.789 6.789 0 1 0 0-13.58 6.79 6.79 0 1 0 0 13.58zm-19.402 0a6.79 6.79 0 1 0 0-13.58 6.794 6.794 0 0 0-6.792 6.789 6.791 6.791 0 0 0 6.792 6.79zm-19.401 0a6.793 6.793 0 0 0 6.792-6.791c0-3.749-3.048-6.79-6.792-6.79a6.794 6.794 0 0 0-6.793 6.79 6.791 6.791 0 0 0 6.793 6.79zm-19.407 0a6.794 6.794 0 0 0 6.795-6.791c0-3.749-3.049-6.79-6.795-6.79a6.789 6.789 0 0 0-6.79 6.79 6.786 6.786 0 0 0 6.79 6.79zm-19.404 0a6.794 6.794 0 0 0 6.797-6.791c0-3.749-3.048-6.79-6.797-6.79s-6.792 3.041-6.792 6.79a6.79 6.79 0 0 0 6.792 6.79zm-19.404 0a6.794 6.794 0 0 0 6.797-6.791c0-3.749-3.048-6.79-6.797-6.79s-6.785 3.041-6.785 6.79a6.784 6.784 0 0 0 6.785 6.79zm-19.404 0a6.792 6.792 0 0 0 6.797-6.791c0-3.749-3.046-6.79-6.797-6.79s-6.79 3.041-6.79 6.79a6.786 6.786 0 0 0 6.79 6.79zm-19.4 0a6.79 6.79 0 1 0 0-13.58 6.787 6.787 0 0 0-6.79 6.789 6.785 6.785 0 0 0 6.79 6.79zm-19.409 0a6.79 6.79 0 0 0 6.797-6.791 6.794 6.794 0 0 0-6.797-6.79 6.786 6.786 0 0 0-6.784 6.79 6.784 6.784 0 0 0 6.784 6.79zm-19.396 0a6.79 6.79 0 0 0 0-13.58 6.79 6.79 0 1 0 0 13.58zm-38.811 0a6.79 6.79 0 1 0 0-13.58 6.79 6.79 0 1 0 0 13.58zm-19.404 0a6.789 6.789 0 1 0 0-13.58 6.79 6.79 0 0 0 0 13.58zm-38.808 0a6.79 6.79 0 1 0 0-13.58 6.794 6.794 0 0 0-6.79 6.789 6.79 6.79 0 0 0 6.79 6.79zm-19.4 0a6.79 6.79 0 1 0 0-13.58 6.79 6.79 0 1 0 0 13.58zm-19.406 0a6.789 6.789 0 1 0 0-13.58 6.79 6.79 0 1 0 0 13.58zm-19.402 0a6.79 6.79 0 1 0 0-13.58 6.79 6.79 0 1 0 0 13.58zm-19.404 0a6.79 6.79 0 1 0 0-13.58 6.79 6.79 0 1 0 0 13.58zm-38.808 0a6.789 6.789 0 1 0 0-13.58 6.789 6.789 0 0 0-6.79 6.789 6.786 6.786 0 0 0 6.79 6.79zm-174.63 0a6.79 6.79 0 1 0 0-13.58c-3.749 0-6.795 3.04-6.795 6.789a6.792 6.792 0 0 0 6.795 6.79zm-38.808 0a6.79 6.79 0 1 0 0-13.58 6.789 6.789 0 0 0-6.79 6.789 6.786 6.786 0 0 0 6.79 6.79zm-19.402 0a6.79 6.79 0 1 0 .002-13.578 6.79 6.79 0 0 0-.002 13.578zm-19.404 0a6.789 6.789 0 1 0 0-13.58 6.789 6.789 0 0 0-6.79 6.789 6.786 6.786 0 0 0 6.79 6.79zm-38.806 0a6.79 6.79 0 1 0 0-13.58 6.79 6.79 0 1 0 0 13.58zm-19.404 0a6.787 6.787 0 0 0 6.792-6.791 6.79 6.79 0 0 0-6.792-6.79 6.79 6.79 0 0 0 0 13.58zm-19.404 0a6.79 6.79 0 0 0 6.797-6.791 6.794 6.794 0 0 0-6.797-6.79 6.79 6.79 0 1 0 0 13.58zm-19.402 0a6.79 6.79 0 1 0 0-13.58 6.79 6.79 0 1 0 0 13.58zm-19.404 0a6.79 6.79 0 1 0 0-13.58 6.79 6.79 0 1 0 0 13.58zm-19.404 0a6.79 6.79 0 1 0 0-13.58c-3.749 0-6.795 3.04-6.795 6.789a6.792 6.792 0 0 0 6.795 6.79zm-19.404 0a6.79 6.79 0 1 0 0-13.58 6.79 6.79 0 1 0 0 13.58zm911.964 19.4a6.793 6.793 0 0 0 6.792-6.788 6.792 6.792 0 1 0-6.792 6.789zm-38.808 0a6.79 6.79 0 1 0 .002-13.581 6.79 6.79 0 0 0-.002 13.582zm-19.4 0a6.791 6.791 0 1 0-.003-13.581 6.791 6.791 0 0 0 .004 13.582zm-19.406 0a6.789 6.789 0 0 0 6.79-6.788 6.79 6.79 0 1 0-13.58 0 6.792 6.792 0 0 0 6.79 6.789zm-19.402 0a6.792 6.792 0 0 0 6.793-6.788c0-3.75-3.041-6.794-6.793-6.794a6.795 6.795 0 0 0-6.792 6.794 6.794 6.794 0 0 0 6.792 6.789zm-19.406 0a6.793 6.793 0 0 0 6.795-6.788c0-3.75-3.041-6.794-6.795-6.794a6.795 6.795 0 0 0-6.79 6.794 6.794 6.794 0 0 0 6.79 6.789zm-19.402 0a6.795 6.795 0 0 0 6.795-6.788 6.796 6.796 0 0 0-6.795-6.794 6.797 6.797 0 0 0-6.792 6.794 6.796 6.796 0 0 0 6.792 6.789zm-19.401 0c3.744 0 6.792-3.042 6.792-6.788a6.798 6.798 0 0 0-6.792-6.794 6.797 6.797 0 0 0-6.793 6.794 6.796 6.796 0 0 0 6.793 6.789zm-19.407 0c3.746 0 6.795-3.042 6.795-6.788a6.791 6.791 0 1 0-6.795 6.789zm-19.404 0c3.749 0 6.797-3.042 6.797-6.788 0-3.75-3.048-6.794-6.797-6.794s-6.792 3.043-6.792 6.794a6.794 6.794 0 0 0 6.792 6.789zm-19.404 0c3.749 0 6.797-3.042 6.797-6.788 0-3.75-3.048-6.794-6.797-6.794s-6.785 3.043-6.785 6.794a6.788 6.788 0 0 0 6.785 6.789zm-19.404 0c3.751 0 6.797-3.042 6.797-6.788 0-3.75-3.046-6.794-6.797-6.794a6.792 6.792 0 0 0 0 13.583zm-19.4 0a6.794 6.794 0 0 0 6.793-6.788 6.79 6.79 0 1 0-13.582 0 6.789 6.789 0 0 0 6.79 6.789zm-19.409 0c3.754 0 6.797-3.042 6.797-6.788a6.796 6.796 0 0 0-6.797-6.794 6.789 6.789 0 0 0-6.784 6.794 6.788 6.788 0 0 0 6.784 6.789zm-19.396 0a6.792 6.792 0 1 0-6.795-6.788 6.791 6.791 0 0 0 6.795 6.789zm-19.402 0a6.79 6.79 0 0 0 6.785-6.788c0-3.75-3.041-6.794-6.785-6.794a6.792 6.792 0 1 0 0 13.583zm-19.41 0a6.795 6.795 0 0 0 6.795-6.788 6.796 6.796 0 0 0-6.794-6.794 6.795 6.795 0 0 0-6.792 6.794 6.794 6.794 0 0 0 6.792 6.789zm-19.403 0a6.793 6.793 0 0 0 6.794-6.788 6.793 6.793 0 1 0-13.584 0 6.792 6.792 0 0 0 6.79 6.789zm-58.208 0a6.794 6.794 0 0 0 6.792-6.788c0-3.75-3.043-6.794-6.792-6.794s-6.792 3.043-6.792 6.794a6.794 6.794 0 0 0 6.792 6.789zm-19.406 0a6.793 6.793 0 0 0 6.794-6.788c0-3.75-3.04-6.794-6.794-6.794a6.795 6.795 0 0 0-6.79 6.794 6.794 6.794 0 0 0 6.79 6.789zm-19.402 0a6.794 6.794 0 0 0 6.792-6.788 6.795 6.795 0 0 0-6.792-6.794 6.794 6.794 0 0 0-6.792 6.794 6.792 6.792 0 0 0 6.792 6.789zm-19.404 0a6.794 6.794 0 0 0 6.792-6.788 6.795 6.795 0 0 0-6.792-6.794 6.794 6.794 0 0 0-6.792 6.794 6.792 6.792 0 0 0 6.792 6.789zm-19.404 0a6.795 6.795 0 0 0 6.794-6.788 6.792 6.792 0 1 0-6.795 6.789zm-213.438 0a6.795 6.795 0 0 0 6.794-6.788 6.792 6.792 0 1 0-6.795 6.789zm-19.404 0a6.795 6.795 0 0 0 6.794-6.788 6.792 6.792 0 1 0-6.795 6.789zm-19.402 0a6.792 6.792 0 0 0 6.792-6.788 6.791 6.791 0 1 0-6.792 6.789zm-19.404 0a6.793 6.793 0 0 0 6.794-6.788 6.791 6.791 0 1 0-6.795 6.789zm-19.402 0a6.792 6.792 0 0 0 6.792-6.788c0-3.75-3.04-6.794-6.792-6.794a6.794 6.794 0 0 0-6.792 6.794 6.792 6.792 0 0 0 6.792 6.789zm-38.808 0a6.79 6.79 0 1 0 .002-13.581 6.79 6.79 0 0 0-.002 13.582zm-19.404 0c3.754 0 6.797-3.042 6.797-6.788a6.795 6.795 0 0 0-13.59 0 6.794 6.794 0 0 0 6.793 6.789zm-19.402 0a6.795 6.795 0 0 0 6.795-6.788 6.796 6.796 0 0 0-13.59 0 6.795 6.795 0 0 0 6.795 6.789zm-19.404 0a6.792 6.792 0 0 0 6.792-6.788 6.794 6.794 0 0 0-13.587 0 6.795 6.795 0 0 0 6.795 6.789zm-19.404 0a6.792 6.792 0 0 0 6.792-6.788 6.794 6.794 0 0 0-13.587 0c0 3.746 3.046 6.789 6.795 6.789zm-19.404 0a6.795 6.795 0 0 0 6.794-6.788 6.796 6.796 0 0 0-6.794-6.794 6.795 6.795 0 0 0-6.792 6.794 6.794 6.794 0 0 0 6.792 6.789zm911.964 19.4a6.789 6.789 0 1 0 0-13.578 6.79 6.79 0 0 0-6.792 6.79 6.787 6.787 0 0 0 6.792 6.787zm-19.406 0a6.787 6.787 0 0 0 6.792-6.787 6.79 6.79 0 1 0-13.58 0 6.788 6.788 0 0 0 6.788 6.786zm-19.402 0a6.787 6.787 0 0 0 6.792-6.787 6.79 6.79 0 1 0-13.582 0 6.788 6.788 0 0 0 6.79 6.786zm-38.806 0a6.785 6.785 0 0 0 6.79-6.787 6.79 6.79 0 1 0-13.58 0 6.788 6.788 0 0 0 6.79 6.786zm-19.402 0a6.789 6.789 0 1 0 0-13.578 6.793 6.793 0 0 0-6.792 6.79 6.79 6.79 0 0 0 6.792 6.787zm-19.406 0a6.79 6.79 0 1 0 0-13.578 6.792 6.792 0 0 0-6.79 6.79 6.79 6.79 0 0 0 6.79 6.787zm-19.402 0c3.752 0 6.795-3.039 6.795-6.787a6.794 6.794 0 0 0-13.587 0c0 3.748 3.046 6.786 6.792 6.786zm-19.401 0c3.744 0 6.792-3.039 6.792-6.787a6.796 6.796 0 0 0-6.792-6.791 6.795 6.795 0 0 0-6.793 6.79c0 3.75 3.046 6.787 6.793 6.787zm-19.407 0c3.746 0 6.795-3.039 6.795-6.787a6.797 6.797 0 0 0-6.795-6.791 6.79 6.79 0 1 0 0 13.577zm-19.404 0c3.749 0 6.797-3.039 6.797-6.787 0-3.75-3.048-6.791-6.797-6.791s-6.792 3.04-6.792 6.79a6.79 6.79 0 0 0 6.792 6.787zm-19.404 0c3.749 0 6.797-3.039 6.797-6.787 0-3.75-3.048-6.791-6.797-6.791s-6.785 3.04-6.785 6.79a6.784 6.784 0 0 0 6.785 6.787zm-19.404 0c3.751 0 6.797-3.039 6.797-6.787 0-3.75-3.046-6.791-6.797-6.791a6.79 6.79 0 1 0 0 13.577zm-19.4 0a6.79 6.79 0 0 0 6.793-6.787 6.793 6.793 0 0 0-6.793-6.791 6.788 6.788 0 0 0-6.79 6.79 6.785 6.785 0 0 0 6.79 6.787zm-19.409 0c3.754 0 6.797-3.039 6.797-6.787a6.794 6.794 0 0 0-6.797-6.791 6.787 6.787 0 0 0-6.784 6.79 6.784 6.784 0 0 0 6.784 6.787zm-19.396 0a6.788 6.788 0 1 0 0-13.578 6.788 6.788 0 1 0 0 13.577zm-19.402 0a6.787 6.787 0 0 0 6.785-6.787 6.79 6.79 0 0 0-6.785-6.791 6.79 6.79 0 0 0-6.792 6.79 6.787 6.787 0 0 0 6.792 6.787zm-19.41 0c3.752 0 6.795-3.039 6.795-6.787a6.794 6.794 0 0 0-13.586 0 6.79 6.79 0 0 0 6.792 6.786zm-19.403 0a6.79 6.79 0 1 0 0-13.578 6.788 6.788 0 1 0 0 13.577zm-19.404 0c3.751 0 6.794-3.039 6.794-6.787a6.794 6.794 0 0 0-6.794-6.791 6.787 6.787 0 0 0-6.785 6.79 6.784 6.784 0 0 0 6.785 6.787zm-19.404 0a6.79 6.79 0 0 0 6.797-6.787 6.794 6.794 0 0 0-13.587 0 6.791 6.791 0 0 0 6.79 6.786zm-19.4 0a6.79 6.79 0 0 0 6.792-6.787 6.793 6.793 0 0 0-13.584 0 6.79 6.79 0 0 0 6.792 6.786zm-19.406 0a6.79 6.79 0 1 0 0-13.578 6.792 6.792 0 0 0-6.79 6.79 6.79 6.79 0 0 0 6.79 6.787zm-19.402 0a6.79 6.79 0 0 0 6.792-6.787 6.793 6.793 0 0 0-13.584 0 6.789 6.789 0 0 0 6.792 6.786zm-38.808 0c3.751 0 6.794-3.039 6.794-6.787 0-3.75-3.043-6.791-6.794-6.791a6.79 6.79 0 1 0 0 13.577zm-19.404 0a6.79 6.79 0 1 0 0-13.578 6.79 6.79 0 1 0 0 13.577zm-19.402 0a6.789 6.789 0 1 0 0-13.578 6.79 6.79 0 0 0-6.792 6.79 6.787 6.787 0 0 0 6.792 6.787zm-213.438 0a6.789 6.789 0 1 0 0-13.578 6.79 6.79 0 1 0 0 13.577zm-19.404 0a6.79 6.79 0 1 0 0-13.578 6.79 6.79 0 1 0 0 13.577zm-19.402 0a6.789 6.789 0 1 0 0-13.578 6.789 6.789 0 1 0 0 13.577zm-19.404 0a6.789 6.789 0 1 0 0-13.578 6.789 6.789 0 1 0 0 13.577zm-19.404 0a6.787 6.787 0 0 0 6.792-6.787 6.79 6.79 0 1 0-13.582 0 6.788 6.788 0 0 0 6.79 6.786zm-19.404 0c3.754 0 6.797-3.039 6.797-6.787a6.794 6.794 0 0 0-6.797-6.791 6.793 6.793 0 0 0-6.792 6.79 6.79 6.79 0 0 0 6.792 6.787zm-19.402 0c3.752 0 6.795-3.039 6.795-6.787 0-3.75-3.043-6.791-6.795-6.791s-6.794 3.04-6.794 6.79 3.043 6.787 6.794 6.787zm-19.404 0a6.789 6.789 0 1 0 0-13.578 6.794 6.794 0 0 0-6.795 6.79c0 3.75 3.044 6.787 6.795 6.787zm-19.404 0a6.789 6.789 0 1 0 0-13.578 6.795 6.795 0 0 0-6.795 6.79c0 3.75 3.046 6.787 6.795 6.787zm-19.404 0c3.751 0 6.794-3.039 6.794-6.787a6.794 6.794 0 0 0-13.586 0 6.79 6.79 0 0 0 6.792 6.786zm892.558 19.4a6.788 6.788 0 0 0 6.792-6.789 6.791 6.791 0 0 0-6.792-6.79 6.792 6.792 0 0 0-6.788 6.79c0 3.751 3.041 6.79 6.788 6.79zm-38.801 0a6.79 6.79 0 1 0-.002-13.578 6.79 6.79 0 0 0 .002 13.578zm-19.407 0a6.786 6.786 0 0 0 6.79-6.789 6.79 6.79 0 1 0-13.58 0c0 3.751 3.041 6.79 6.79 6.79zm-19.402 0a6.79 6.79 0 1 0 0-13.58 6.795 6.795 0 0 0-6.792 6.791 6.79 6.79 0 0 0 6.792 6.79zm-19.406 0a6.79 6.79 0 1 0 0-13.58 6.79 6.79 0 0 0 0 13.58zm-19.402 0a6.791 6.791 0 0 0 6.795-6.789 6.795 6.795 0 0 0-6.795-6.79 6.796 6.796 0 0 0-6.792 6.79 6.792 6.792 0 0 0 6.792 6.79zm-19.401 0a6.794 6.794 0 0 0 6.792-6.789 6.798 6.798 0 0 0-6.792-6.79 6.796 6.796 0 0 0-6.793 6.79 6.792 6.792 0 0 0 6.793 6.79zm-19.407 0c3.746 0 6.795-3.038 6.795-6.789 0-3.748-3.049-6.79-6.795-6.79a6.79 6.79 0 0 0 0 13.58zm-19.404 0c3.749 0 6.797-3.038 6.797-6.789a6.795 6.795 0 0 0-13.59 0 6.79 6.79 0 0 0 6.793 6.79zm-19.404 0c3.749 0 6.797-3.038 6.797-6.789 0-3.748-3.048-6.79-6.797-6.79s-6.785 3.042-6.785 6.79a6.785 6.785 0 0 0 6.785 6.79zm-19.404 0c3.751 0 6.797-3.038 6.797-6.789 0-3.748-3.046-6.79-6.797-6.79s-6.79 3.042-6.79 6.79a6.787 6.787 0 0 0 6.79 6.79zm-19.4 0a6.79 6.79 0 0 0 6.793-6.789 6.795 6.795 0 0 0-6.793-6.79 6.79 6.79 0 0 0-6.79 6.79 6.786 6.786 0 0 0 6.79 6.79zm-19.409 0a6.792 6.792 0 0 0 6.797-6.789 6.796 6.796 0 0 0-6.797-6.79 6.788 6.788 0 0 0-6.784 6.79 6.785 6.785 0 0 0 6.784 6.79zm-19.396 0a6.789 6.789 0 0 0 6.79-6.789 6.792 6.792 0 0 0-13.585 0 6.788 6.788 0 0 0 6.795 6.79zm-19.402 0a6.788 6.788 0 0 0 6.785-6.789c0-3.748-3.041-6.79-6.785-6.79a6.791 6.791 0 0 0-6.792 6.79 6.788 6.788 0 0 0 6.792 6.79zm-19.41 0a6.791 6.791 0 0 0 6.795-6.789 6.795 6.795 0 0 0-13.587 0 6.79 6.79 0 0 0 6.793 6.79zm-19.403 0a6.79 6.79 0 1 0 0-13.58 6.792 6.792 0 0 0-6.79 6.791c0 3.751 3.04 6.79 6.79 6.79zm-19.404 0a6.791 6.791 0 0 0 6.794-6.789 6.795 6.795 0 0 0-6.794-6.79 6.788 6.788 0 0 0-6.785 6.79 6.785 6.785 0 0 0 6.785 6.79zm-38.804 0a6.79 6.79 0 0 0 6.792-6.789c0-3.748-3.043-6.79-6.792-6.79s-6.792 3.042-6.792 6.79a6.79 6.79 0 0 0 6.792 6.79zm-19.406 0a6.79 6.79 0 1 0 0-13.58 6.79 6.79 0 0 0 0 13.58zm-19.402 0a6.79 6.79 0 0 0 6.792-6.789 6.793 6.793 0 0 0-13.584 0 6.79 6.79 0 0 0 6.792 6.79zm-19.404 0a6.79 6.79 0 0 0 6.792-6.789 6.793 6.793 0 0 0-13.584 0 6.79 6.79 0 0 0 6.792 6.79zm-38.808 0a6.79 6.79 0 1 0 0-13.58 6.79 6.79 0 0 0 0 13.58zm-252.244 0a6.79 6.79 0 1 0 0-13.58 6.79 6.79 0 0 0 0 13.58zm-19.402 0a6.79 6.79 0 1 0 0-13.58 6.79 6.79 0 1 0 0 13.58zm-19.404 0a6.79 6.79 0 1 0 0-13.58 6.79 6.79 0 1 0 0 13.58zm-19.404 0a6.788 6.788 0 0 0 6.792-6.789 6.791 6.791 0 0 0-13.582 0c0 3.751 3.041 6.79 6.79 6.79zm-19.404 0a6.792 6.792 0 0 0 6.797-6.789 6.796 6.796 0 0 0-13.59 0 6.79 6.79 0 0 0 6.793 6.79zm-19.402 0a6.791 6.791 0 0 0 6.795-6.789 6.795 6.795 0 0 0-13.59 0 6.791 6.791 0 0 0 6.795 6.79zm-19.404 0a6.79 6.79 0 1 0 0-13.58 6.795 6.795 0 0 0-6.795 6.791 6.791 6.791 0 0 0 6.795 6.79zm-19.404 0a6.79 6.79 0 1 0 0-13.58 6.797 6.797 0 0 0-6.795 6.791 6.793 6.793 0 0 0 6.795 6.79zm-19.404 0a6.791 6.791 0 0 0 6.794-6.789 6.795 6.795 0 0 0-13.587 0 6.79 6.79 0 0 0 6.793 6.79zm853.757 19.401a6.79 6.79 0 0 0 6.79-6.791 6.789 6.789 0 0 0-6.79-6.789 6.79 6.79 0 1 0 0 13.58zm-19.407 0c3.754 0 6.79-3.04 6.79-6.791a6.79 6.79 0 1 0-6.79 6.791zm-19.402 0a6.79 6.79 0 1 0 0-13.58 6.792 6.792 0 0 0-6.792 6.789 6.793 6.793 0 0 0 6.792 6.791zm-19.406 0a6.792 6.792 0 0 0 6.795-6.791 6.791 6.791 0 0 0-6.795-6.789 6.792 6.792 0 0 0-6.79 6.789 6.792 6.792 0 0 0 6.79 6.791zm-19.402 0a6.794 6.794 0 0 0 6.795-6.791 6.794 6.794 0 0 0-13.587 0 6.795 6.795 0 0 0 6.792 6.791zm-19.401 0a6.796 6.796 0 0 0 6.792-6.791c0-3.748-3.048-6.789-6.792-6.789a6.794 6.794 0 0 0-6.793 6.789 6.795 6.795 0 0 0 6.793 6.791zm-19.407 0a6.797 6.797 0 0 0 6.795-6.791c0-3.748-3.049-6.789-6.795-6.789a6.789 6.789 0 0 0-6.79 6.789 6.79 6.79 0 0 0 6.79 6.791zm-19.404 0c3.749 0 6.797-3.04 6.797-6.791 0-3.748-3.048-6.789-6.797-6.789s-6.792 3.04-6.792 6.789a6.793 6.793 0 0 0 6.792 6.791zm-19.404 0c3.749 0 6.797-3.04 6.797-6.791 0-3.748-3.048-6.789-6.797-6.789s-6.785 3.04-6.785 6.789a6.787 6.787 0 0 0 6.785 6.791zm-19.404 0a6.796 6.796 0 0 0 6.797-6.791c0-3.748-3.046-6.789-6.797-6.789s-6.79 3.04-6.79 6.789a6.79 6.79 0 0 0 6.79 6.791zm-19.4 0a6.793 6.793 0 0 0 6.793-6.791 6.792 6.792 0 0 0-6.793-6.789 6.787 6.787 0 0 0-6.79 6.789 6.788 6.788 0 0 0 6.79 6.791zm-19.409 0a6.794 6.794 0 0 0 6.797-6.791 6.794 6.794 0 0 0-6.797-6.789 6.786 6.786 0 0 0-6.784 6.789 6.787 6.787 0 0 0 6.784 6.791zm-19.396 0a6.79 6.79 0 0 0 0-13.58 6.79 6.79 0 1 0 0 13.58zm-38.811 0a6.794 6.794 0 0 0 6.794-6.791 6.793 6.793 0 0 0-6.794-6.789 6.792 6.792 0 0 0-6.792 6.789 6.793 6.793 0 0 0 6.792 6.791zm-19.404 0a6.792 6.792 0 0 0 6.794-6.791 6.791 6.791 0 0 0-6.794-6.789 6.79 6.79 0 0 0 0 13.58zm-19.404 0a6.794 6.794 0 0 0 6.794-6.791 6.793 6.793 0 0 0-6.794-6.789 6.786 6.786 0 0 0-6.785 6.789 6.787 6.787 0 0 0 6.785 6.791zm-38.804 0a6.793 6.793 0 0 0 6.792-6.791 6.792 6.792 0 0 0-13.584 0 6.793 6.793 0 0 0 6.792 6.791zm-38.808 0a6.793 6.793 0 0 0 6.792-6.791 6.792 6.792 0 0 0-13.584 0c0 3.75 3.04 6.791 6.792 6.791zm-19.404 0a6.793 6.793 0 0 0 6.792-6.791 6.792 6.792 0 0 0-13.584 0c0 3.75 3.04 6.791 6.792 6.791zm-19.404 0a6.794 6.794 0 0 0 6.794-6.791 6.793 6.793 0 0 0-13.584 0 6.79 6.79 0 0 0 6.79 6.791zm-19.404 0a6.792 6.792 0 0 0 6.794-6.791 6.791 6.791 0 0 0-6.794-6.789 6.789 6.789 0 0 0-6.79 6.789 6.79 6.79 0 0 0 6.79 6.791zm-271.646 0a6.79 6.79 0 1 0 0-13.58 6.79 6.79 0 1 0 0 13.58zm-19.404 0a6.79 6.79 0 1 0 0-13.58 6.79 6.79 0 1 0 0 13.58zm-19.404 0a6.79 6.79 0 1 0 0-13.58 6.79 6.79 0 0 0 0 13.58zm-19.404 0a6.794 6.794 0 0 0 6.797-6.791 6.794 6.794 0 0 0-6.797-6.789 6.792 6.792 0 0 0-6.792 6.789 6.793 6.793 0 0 0 6.792 6.791zm-19.402 0a6.794 6.794 0 0 0 6.795-6.791c0-3.748-3.043-6.789-6.795-6.789s-6.794 3.04-6.794 6.789a6.794 6.794 0 0 0 6.794 6.791zm-19.404 0a6.79 6.79 0 1 0 0-13.58 6.793 6.793 0 0 0-6.795 6.789 6.794 6.794 0 0 0 6.795 6.791zm-19.404 0a6.79 6.79 0 1 0 0-13.58c-3.749 0-6.795 3.04-6.795 6.789a6.795 6.795 0 0 0 6.795 6.791zm814.946 19.401c3.754 0 6.79-3.043 6.79-6.791a6.79 6.79 0 1 0-13.58 0 6.792 6.792 0 0 0 6.79 6.791zm-19.402 0c3.752 0 6.793-3.043 6.793-6.791a6.793 6.793 0 0 0-13.585 0 6.795 6.795 0 0 0 6.792 6.791zm-19.406 0c3.754 0 6.795-3.043 6.795-6.791s-3.041-6.791-6.795-6.791c-3.747 0-6.79 3.043-6.79 6.79s3.043 6.792 6.79 6.792zm-19.402 0c3.752 0 6.795-3.043 6.795-6.791s-3.043-6.791-6.795-6.791c-3.746 0-6.792 3.043-6.792 6.79s3.046 6.792 6.792 6.792zm-19.401 0c3.744 0 6.792-3.043 6.792-6.791s-3.048-6.791-6.792-6.791c-3.747 0-6.793 3.043-6.793 6.79s3.046 6.792 6.793 6.792zm-19.407 0c3.746 0 6.795-3.043 6.795-6.791s-3.049-6.791-6.795-6.791a6.79 6.79 0 0 0 0 13.582zm-19.404 0c3.749 0 6.797-3.043 6.797-6.791s-3.048-6.791-6.797-6.791-6.792 3.043-6.792 6.79 3.043 6.792 6.792 6.792zm-19.404 0c3.749 0 6.797-3.043 6.797-6.791s-3.048-6.791-6.797-6.791-6.785 3.043-6.785 6.79 3.036 6.792 6.785 6.792zm-19.404 0c3.751 0 6.797-3.043 6.797-6.791s-3.046-6.791-6.797-6.791a6.791 6.791 0 0 0 0 13.582zm-77.607 0c3.744 0 6.785-3.043 6.785-6.791s-3.041-6.791-6.785-6.791a6.791 6.791 0 1 0 0 13.582zm-19.41 0c3.752 0 6.795-3.043 6.795-6.791s-3.043-6.791-6.794-6.791c-3.749 0-6.792 3.043-6.792 6.79s3.043 6.792 6.792 6.792zm-19.403 0c3.754 0 6.794-3.043 6.794-6.791s-3.04-6.791-6.794-6.791c-3.75 0-6.79 3.043-6.79 6.79s3.04 6.792 6.79 6.792zm-19.404 0c3.751 0 6.794-3.043 6.794-6.791s-3.043-6.791-6.794-6.791c-3.75 0-6.785 3.043-6.785 6.79s3.036 6.792 6.785 6.792zm-19.404 0c3.756 0 6.797-3.043 6.797-6.791a6.794 6.794 0 0 0-13.587 0 6.796 6.796 0 0 0 6.79 6.791zm-19.4 0c3.75 0 6.792-3.043 6.792-6.791s-3.043-6.791-6.792-6.791-6.792 3.043-6.792 6.79 3.043 6.792 6.792 6.792zm-19.406 0c3.754 0 6.794-3.043 6.794-6.791s-3.04-6.791-6.794-6.791c-3.747 0-6.79 3.043-6.79 6.79s3.043 6.792 6.79 6.792zm-19.402 0c3.749 0 6.792-3.043 6.792-6.791s-3.043-6.791-6.792-6.791c-3.751 0-6.792 3.043-6.792 6.79s3.04 6.792 6.792 6.792zm-19.404 0c3.749 0 6.792-3.043 6.792-6.791s-3.043-6.791-6.792-6.791c-3.751 0-6.792 3.043-6.792 6.79s3.04 6.792 6.792 6.792zm-19.404 0c3.751 0 6.794-3.043 6.794-6.791s-3.043-6.791-6.794-6.791a6.791 6.791 0 0 0 0 13.582zm-19.404 0c3.753 0 6.794-3.043 6.794-6.791s-3.04-6.791-6.794-6.791a6.79 6.79 0 0 0 0 13.582zm-19.402 0c3.751 0 6.792-3.043 6.792-6.791a6.793 6.793 0 0 0-13.584 0 6.791 6.791 0 0 0 6.792 6.791zm-252.244 0c3.752 0 6.792-3.043 6.792-6.791a6.793 6.793 0 0 0-13.584 0 6.793 6.793 0 0 0 6.792 6.791zm-58.212 0c3.754 0 6.797-3.043 6.797-6.791a6.796 6.796 0 0 0-13.59 0 6.795 6.795 0 0 0 6.793 6.791zm-19.402 0c3.752 0 6.795-3.043 6.795-6.791a6.795 6.795 0 0 0-13.59 0 6.795 6.795 0 0 0 6.795 6.791zm-19.404 0c3.751 0 6.792-3.043 6.792-6.791a6.793 6.793 0 0 0-13.587 0 6.795 6.795 0 0 0 6.795 6.791zm-19.404 0c3.751 0 6.792-3.043 6.792-6.791a6.793 6.793 0 0 0-13.587 0 6.797 6.797 0 0 0 6.795 6.791zm853.752 19.399a6.787 6.787 0 0 0 6.792-6.787 6.79 6.79 0 1 0-13.582 0 6.788 6.788 0 0 0 6.79 6.787zm-38.806 0a6.785 6.785 0 0 0 6.79-6.787 6.79 6.79 0 1 0-13.58 0 6.788 6.788 0 0 0 6.79 6.787zm-38.808 0a6.79 6.79 0 1 0 0-13.578 6.792 6.792 0 0 0-6.79 6.791 6.79 6.79 0 0 0 6.79 6.787zm-19.402 0c3.752 0 6.795-3.038 6.795-6.787a6.794 6.794 0 0 0-13.587 0c0 3.749 3.046 6.787 6.792 6.787zm-38.808 0c3.746 0 6.795-3.038 6.795-6.787a6.797 6.797 0 0 0-6.795-6.79 6.79 6.79 0 1 0 0 13.577zm-19.404 0c3.749 0 6.797-3.038 6.797-6.787 0-3.75-3.048-6.79-6.797-6.79s-6.792 3.04-6.792 6.79a6.79 6.79 0 0 0 6.792 6.787zm-19.404 0c3.749 0 6.797-3.038 6.797-6.787 0-3.75-3.048-6.79-6.797-6.79s-6.785 3.04-6.785 6.79a6.784 6.784 0 0 0 6.785 6.787zm-58.213 0c3.754 0 6.797-3.038 6.797-6.787a6.794 6.794 0 0 0-6.797-6.79 6.787 6.787 0 0 0-6.784 6.79 6.784 6.784 0 0 0 6.784 6.787zm-19.396 0a6.788 6.788 0 1 0 0-13.578 6.788 6.788 0 1 0 0 13.577zm-19.402 0a6.787 6.787 0 0 0 6.785-6.787 6.79 6.79 0 0 0-6.785-6.79 6.79 6.79 0 0 0-6.792 6.79 6.787 6.787 0 0 0 6.792 6.787zm-19.41 0c3.752 0 6.795-3.038 6.795-6.787a6.794 6.794 0 0 0-13.586 0 6.79 6.79 0 0 0 6.792 6.787zm-19.403 0a6.79 6.79 0 1 0 0-13.578 6.788 6.788 0 1 0 0 13.577zm-19.404 0c3.751 0 6.794-3.038 6.794-6.787a6.794 6.794 0 0 0-6.794-6.79 6.787 6.787 0 0 0-6.785 6.79 6.784 6.784 0 0 0 6.785 6.787zm-19.404 0a6.79 6.79 0 0 0 6.797-6.787 6.794 6.794 0 0 0-13.587 0 6.791 6.791 0 0 0 6.79 6.787zm-19.4 0a6.79 6.79 0 0 0 6.792-6.787 6.793 6.793 0 0 0-13.584 0 6.79 6.79 0 0 0 6.792 6.787zm-19.406 0a6.79 6.79 0 1 0 0-13.578 6.792 6.792 0 0 0-6.79 6.791 6.79 6.79 0 0 0 6.79 6.787zm-19.402 0a6.79 6.79 0 0 0 6.792-6.787 6.793 6.793 0 0 0-13.584 0 6.789 6.789 0 0 0 6.792 6.787zm-19.404 0a6.79 6.79 0 0 0 6.792-6.787 6.793 6.793 0 0 0-13.584 0 6.789 6.789 0 0 0 6.792 6.787zm-19.404 0c3.751 0 6.794-3.038 6.794-6.787 0-3.75-3.043-6.79-6.794-6.79a6.79 6.79 0 1 0 0 13.577zm-19.404 0a6.79 6.79 0 1 0 0-13.578 6.79 6.79 0 1 0 0 13.578zm-19.402 0a6.789 6.789 0 1 0 0-13.578 6.79 6.79 0 0 0-6.792 6.791 6.787 6.787 0 0 0 6.792 6.787zm-19.402 0a6.789 6.789 0 0 0 0-13.577 6.79 6.79 0 1 0 0 13.577zm-213.44 0a6.79 6.79 0 1 0 0-13.578 6.79 6.79 0 1 0 0 13.578zm-19.402 0a6.789 6.789 0 1 0 0-13.578 6.789 6.789 0 1 0 0 13.577zm-77.614 0c3.752 0 6.795-3.038 6.795-6.787 0-3.75-3.043-6.79-6.795-6.79s-6.794 3.04-6.794 6.79c0 3.749 3.043 6.787 6.794 6.787zm-19.404 0a6.789 6.789 0 1 0 0-13.578 6.794 6.794 0 0 0-6.795 6.791c0 3.749 3.044 6.787 6.795 6.787zm-19.404 0a6.789 6.789 0 1 0 0-13.578 6.795 6.795 0 0 0-6.795 6.791c0 3.749 3.046 6.787 6.795 6.787zm-174.632 0a6.79 6.79 0 1 0 0-13.578 6.788 6.788 0 1 0 0 13.577zm1047.786 19.4a6.79 6.79 0 1 0 0-13.58 6.79 6.79 0 0 0 0 13.58zm-19.402 0a6.79 6.79 0 1 0 0-13.58 6.79 6.79 0 0 0 0 13.58zm-58.208 0a6.79 6.79 0 1 0 0-13.58 6.793 6.793 0 0 0-6.792 6.792 6.792 6.792 0 0 0 6.792 6.789zm-19.406 0a6.791 6.791 0 0 0 6.795-6.788 6.792 6.792 0 0 0-13.585 0 6.792 6.792 0 0 0 6.79 6.789zm-77.614 0c3.749 0 6.797-3.04 6.797-6.788 0-3.75-3.048-6.791-6.797-6.791s-6.792 3.04-6.792 6.79a6.792 6.792 0 0 0 6.792 6.79zm-19.404 0c3.749 0 6.797-3.04 6.797-6.788 0-3.75-3.048-6.791-6.797-6.791s-6.785 3.04-6.785 6.79a6.786 6.786 0 0 0 6.785 6.79zm-77.61 0a6.79 6.79 0 0 0 0-13.58 6.79 6.79 0 1 0 0 13.58zm-19.401 0a6.79 6.79 0 0 0 0-13.58 6.79 6.79 0 1 0 0 13.58zm-19.41 0a6.793 6.793 0 0 0 6.795-6.788 6.794 6.794 0 0 0-13.586 0 6.792 6.792 0 0 0 6.792 6.789zm-19.403 0a6.791 6.791 0 0 0 6.794-6.788 6.792 6.792 0 0 0-13.584 0 6.79 6.79 0 0 0 6.79 6.789zm-19.404 0a6.793 6.793 0 0 0 6.794-6.788 6.794 6.794 0 0 0-6.794-6.791 6.787 6.787 0 0 0-6.785 6.79 6.786 6.786 0 0 0 6.785 6.79zm-19.404 0a6.792 6.792 0 0 0 6.797-6.788 6.794 6.794 0 0 0-13.587 0 6.794 6.794 0 0 0 6.79 6.789zm-19.4 0a6.792 6.792 0 0 0 6.792-6.788 6.793 6.793 0 0 0-13.584 0 6.792 6.792 0 0 0 6.792 6.789zm-19.406 0a6.791 6.791 0 0 0 6.794-6.788 6.792 6.792 0 0 0-13.584 0 6.792 6.792 0 0 0 6.79 6.789zm-19.402 0a6.792 6.792 0 0 0 6.792-6.788 6.793 6.793 0 0 0-13.584 0 6.79 6.79 0 0 0 6.792 6.789zm-19.404 0a6.792 6.792 0 0 0 6.792-6.788 6.793 6.793 0 0 0-13.584 0 6.79 6.79 0 0 0 6.792 6.789zm-19.404 0a6.793 6.793 0 0 0 6.794-6.788c0-3.75-3.043-6.791-6.794-6.791a6.79 6.79 0 1 0 0 13.58zm-19.404 0a6.791 6.791 0 0 0 6.794-6.788c0-3.75-3.04-6.791-6.794-6.791a6.79 6.79 0 0 0-6.79 6.79 6.789 6.789 0 0 0 6.79 6.79zm-19.402 0a6.79 6.79 0 1 0 0-13.58 6.79 6.79 0 1 0 0 13.58zm-19.402 0a6.788 6.788 0 0 0 6.788-6.788 6.792 6.792 0 0 0-13.582 0 6.791 6.791 0 0 0 6.794 6.789zm-155.23 0a6.793 6.793 0 0 0 6.794-6.788c0-3.75-3.043-6.791-6.794-6.791a6.79 6.79 0 1 0 0 13.58zm-19.404 0a6.793 6.793 0 0 0 6.794-6.788c0-3.75-3.043-6.791-6.794-6.791a6.79 6.79 0 1 0 0 13.58zm-19.402 0a6.79 6.79 0 1 0 .002-13.581 6.79 6.79 0 0 0-.002 13.582zm-19.404 0a6.791 6.791 0 0 0 6.794-6.788c0-3.75-3.04-6.791-6.794-6.791a6.79 6.79 0 0 0-6.79 6.79 6.789 6.789 0 0 0 6.79 6.79zm-58.21 0a6.79 6.79 0 1 0 0-13.58 6.79 6.79 0 0 0 0 13.58zm-19.404 0a6.794 6.794 0 0 0 6.797-6.788 6.794 6.794 0 0 0-6.797-6.791 6.793 6.793 0 0 0-6.792 6.79 6.792 6.792 0 0 0 6.792 6.79zm-19.402 0a6.793 6.793 0 0 0 6.795-6.788c0-3.75-3.043-6.791-6.795-6.791s-6.794 3.04-6.794 6.79a6.793 6.793 0 0 0 6.794 6.79zm-194.036 0a6.791 6.791 0 0 0 6.794-6.788 6.792 6.792 0 0 0-13.584 0 6.79 6.79 0 0 0 6.79 6.789zm-19.404 0a6.791 6.791 0 0 0 6.794-6.788 6.792 6.792 0 0 0-13.584 0 6.79 6.79 0 0 0 6.79 6.789zm1047.786 19.401a6.79 6.79 0 1 0 .002-13.581 6.79 6.79 0 0 0-.002 13.581zm-19.402 0a6.79 6.79 0 1 0 .002-13.581 6.79 6.79 0 0 0-.002 13.581zm-19.4 0a6.79 6.79 0 0 0 0-13.58 6.79 6.79 0 1 0 0 13.58zm-38.808 0a6.79 6.79 0 1 0 0-13.58 6.791 6.791 0 0 0-6.792 6.792 6.794 6.794 0 0 0 6.792 6.788zm-19.406 0a6.79 6.79 0 1 0 0-13.58 6.79 6.79 0 0 0-6.79 6.792 6.794 6.794 0 0 0 6.79 6.788zm-77.614 0c3.749 0 6.797-3.042 6.797-6.788 0-3.753-3.048-6.791-6.797-6.791s-6.792 3.038-6.792 6.79a6.794 6.794 0 0 0 6.792 6.79zm-97.013 0a6.79 6.79 0 1 0 0-13.58 6.789 6.789 0 1 0 0 13.58zm-19.402 0a6.79 6.79 0 0 0 0-13.58 6.79 6.79 0 1 0 0 13.58zm-19.41 0a6.795 6.795 0 0 0 6.795-6.788 6.792 6.792 0 0 0-6.794-6.791 6.791 6.791 0 0 0-6.792 6.79 6.794 6.794 0 0 0 6.792 6.79zm-19.403 0a6.79 6.79 0 1 0 0-13.58 6.79 6.79 0 1 0 0 13.58zm-19.404 0a6.795 6.795 0 0 0 6.794-6.788 6.792 6.792 0 0 0-6.794-6.791 6.785 6.785 0 0 0-6.785 6.79 6.788 6.788 0 0 0 6.785 6.79zm-19.404 0a6.794 6.794 0 0 0 6.797-6.788 6.79 6.79 0 0 0-6.797-6.791 6.792 6.792 0 0 0-6.79 6.79 6.795 6.795 0 0 0 6.79 6.79zm-19.4 0a6.794 6.794 0 0 0 6.792-6.788c0-3.753-3.043-6.791-6.792-6.791s-6.792 3.038-6.792 6.79a6.794 6.794 0 0 0 6.792 6.79zm-19.406 0a6.79 6.79 0 1 0 0-13.58 6.79 6.79 0 0 0-6.79 6.792 6.794 6.794 0 0 0 6.79 6.788zm-19.402 0a6.794 6.794 0 0 0 6.792-6.788 6.791 6.791 0 0 0-6.792-6.791 6.79 6.79 0 1 0 0 13.58zm-19.404 0a6.794 6.794 0 0 0 6.792-6.788 6.791 6.791 0 0 0-6.792-6.791 6.79 6.79 0 1 0 0 13.58zm-19.404 0a6.795 6.795 0 0 0 6.794-6.788c0-3.753-3.043-6.791-6.794-6.791s-6.79 3.038-6.79 6.79a6.79 6.79 0 0 0 6.79 6.79zm-19.404 0a6.79 6.79 0 1 0 0-13.58 6.79 6.79 0 0 0 0 13.58zm-19.402 0a6.79 6.79 0 1 0 0-13.58 6.79 6.79 0 1 0 0 13.58zm-19.402 0a6.79 6.79 0 0 0 6.788-6.788 6.787 6.787 0 0 0-6.788-6.791 6.79 6.79 0 1 0 0 13.58zm-252.246 0a6.79 6.79 0 1 0 0-13.58 6.79 6.79 0 1 0 0 13.58zm-19.404 0a6.79 6.79 0 1 0 .002-13.581 6.79 6.79 0 0 0-.002 13.581zm-19.404 0c3.754 0 6.797-3.042 6.797-6.788a6.792 6.792 0 0 0-6.797-6.791 6.791 6.791 0 0 0-6.792 6.79 6.794 6.794 0 0 0 6.792 6.79zm776.143 19.404a6.79 6.79 0 0 0 6.79-6.791 6.79 6.79 0 0 0-6.79-6.791 6.79 6.79 0 0 0-6.792 6.79 6.79 6.79 0 0 0 6.792 6.792zm-58.215 0a6.792 6.792 0 1 0 .005-13.584 6.792 6.792 0 0 0-.005 13.584zm-19.402 0a6.794 6.794 0 0 0 6.795-6.791 6.794 6.794 0 0 0-13.587 0 6.795 6.795 0 0 0 6.792 6.79zm-174.627 0a6.79 6.79 0 0 0 6.785-6.791 6.79 6.79 0 0 0-6.785-6.791 6.79 6.79 0 0 0-6.792 6.79 6.79 6.79 0 0 0 6.792 6.792zm-19.41 0a6.794 6.794 0 0 0 6.795-6.791 6.794 6.794 0 0 0-13.586 0 6.793 6.793 0 0 0 6.792 6.79zm-19.403 0a6.792 6.792 0 1 0 .005-13.584 6.792 6.792 0 0 0-.005 13.584zm-19.404 0a6.794 6.794 0 0 0 6.794-6.791 6.794 6.794 0 0 0-6.794-6.791 6.787 6.787 0 0 0-6.785 6.79 6.787 6.787 0 0 0 6.785 6.792zm-19.404 0a6.792 6.792 0 0 0 6.797-6.791 6.794 6.794 0 0 0-13.587 0 6.794 6.794 0 0 0 6.79 6.79zm-19.4 0a6.793 6.793 0 0 0 6.792-6.791 6.793 6.793 0 0 0-13.584 0 6.793 6.793 0 0 0 6.792 6.79zm-19.406 0a6.792 6.792 0 1 0 .005-13.584 6.792 6.792 0 0 0-.005 13.584zm-19.402 0a6.793 6.793 0 0 0 6.792-6.791 6.793 6.793 0 0 0-13.584 0c0 3.75 3.04 6.79 6.792 6.79zm-19.404 0a6.793 6.793 0 0 0 6.792-6.791 6.793 6.793 0 0 0-13.584 0c0 3.75 3.04 6.79 6.792 6.79zm-19.404 0a6.794 6.794 0 0 0 6.794-6.791c0-3.75-3.043-6.791-6.794-6.791s-6.79 3.04-6.79 6.79a6.79 6.79 0 0 0 6.79 6.792zm-19.404 0a6.792 6.792 0 1 0-6.79-6.791 6.79 6.79 0 0 0 6.79 6.79zm-19.402 0a6.791 6.791 0 1 0 0-13.582 6.79 6.79 0 0 0-6.792 6.79 6.79 6.79 0 0 0 6.792 6.792zm-174.632 0a6.794 6.794 0 0 0 6.794-6.791c0-3.75-3.043-6.791-6.794-6.791s-6.79 3.04-6.79 6.79a6.79 6.79 0 0 0 6.79 6.792zm-19.404 0a6.794 6.794 0 0 0 6.794-6.791c0-3.75-3.043-6.791-6.794-6.791s-6.79 3.04-6.79 6.79a6.79 6.79 0 0 0 6.79 6.792zm-19.402 0a6.791 6.791 0 1 0 .001-13.583 6.791 6.791 0 0 0-.001 13.583zm-19.404 0a6.792 6.792 0 1 0-6.79-6.791 6.79 6.79 0 0 0 6.79 6.79zm-19.402 0a6.791 6.791 0 1 0 0-13.582 6.791 6.791 0 1 0 0 13.582zm-19.404 0a6.791 6.791 0 1 0 0-13.582 6.791 6.791 0 1 0 0 13.582zm834.346 19.396a6.788 6.788 0 0 0 6.794-6.786 6.792 6.792 0 0 0-6.794-6.794 6.792 6.792 0 0 0-6.788 6.794 6.788 6.788 0 0 0 6.788 6.786zm-19.405 0a6.788 6.788 0 0 0 6.795-6.786 6.793 6.793 0 0 0-6.795-6.794 6.79 6.79 0 0 0 0 13.58zm-19.399 0a6.787 6.787 0 0 0 6.792-6.786 6.792 6.792 0 1 0-13.584 0 6.786 6.786 0 0 0 6.792 6.786zm-19.406 0a6.786 6.786 0 0 0 6.792-6.786 6.79 6.79 0 1 0-6.792 6.786zm-19.402 0a6.786 6.786 0 0 0 6.792-6.786 6.79 6.79 0 1 0-13.582 0c0 3.75 3.041 6.786 6.79 6.786zm-19.4 0a6.785 6.785 0 0 0 6.79-6.786 6.79 6.79 0 0 0-6.79-6.794 6.79 6.79 0 0 0-6.791 6.794 6.786 6.786 0 0 0 6.792 6.786zm-19.406 0a6.784 6.784 0 0 0 6.79-6.786 6.788 6.788 0 0 0-6.79-6.794 6.791 6.791 0 0 0-6.79 6.794c0 3.75 3.041 6.786 6.79 6.786zm-19.402 0a6.787 6.787 0 0 0 6.793-6.786 6.792 6.792 0 1 0-13.585 0 6.789 6.789 0 0 0 6.792 6.786zm-19.406 0a6.788 6.788 0 0 0 6.795-6.786 6.792 6.792 0 1 0-13.585 0 6.788 6.788 0 0 0 6.79 6.786zm-213.438 0a6.79 6.79 0 1 0 0-13.58 6.789 6.789 0 1 0 0 13.58zm-19.404 0a6.788 6.788 0 0 0 6.794-6.786 6.792 6.792 0 1 0-13.584 0c0 3.75 3.04 6.786 6.79 6.786zm-19.404 0a6.79 6.79 0 1 0 0-13.58 6.787 6.787 0 0 0-6.785 6.794 6.783 6.783 0 0 0 6.785 6.786zm-19.404 0a6.788 6.788 0 0 0 6.797-6.786 6.793 6.793 0 1 0-13.587 0 6.79 6.79 0 0 0 6.79 6.786zm-19.4 0a6.789 6.789 0 1 0 0-13.58 6.789 6.789 0 1 0 0 13.58zm-19.406 0a6.788 6.788 0 0 0 6.794-6.786 6.792 6.792 0 1 0-13.584 0 6.788 6.788 0 0 0 6.79 6.786zm-19.402 0a6.789 6.789 0 1 0 0-13.58A6.792 6.792 0 0 0 620.91 453c0 3.75 3.04 6.786 6.792 6.786zm-232.842 0a6.789 6.789 0 1 0 0-13.58 6.796 6.796 0 0 0-6.795 6.794c0 3.75 3.046 6.786 6.795 6.786zm-19.404 0a6.79 6.79 0 1 0 0-13.58 6.79 6.79 0 0 0-6.79 6.794 6.785 6.785 0 0 0 6.79 6.786zm-19.404 0a6.79 6.79 0 1 0 0-13.58 6.79 6.79 0 0 0-6.79 6.794 6.785 6.785 0 0 0 6.79 6.786zm-19.402 0a6.787 6.787 0 0 0 6.792-6.786 6.792 6.792 0 1 0-13.582 0 6.785 6.785 0 0 0 6.79 6.786zm-19.404 0a6.788 6.788 0 0 0 6.794-6.786 6.792 6.792 0 1 0-13.584 0 6.785 6.785 0 0 0 6.79 6.786zm853.75 19.401c3.753 0 6.796-3.043 6.796-6.789a6.792 6.792 0 0 0-6.797-6.788 6.79 6.79 0 0 0-6.787 6.788 6.793 6.793 0 0 0 6.787 6.789zm-19.405 0a6.793 6.793 0 0 0 6.795-6.789 6.79 6.79 0 0 0-13.58 0 6.793 6.793 0 0 0 6.785 6.789zm-19.396 0a6.794 6.794 0 0 0 6.79-6.789 6.793 6.793 0 0 0-13.584 0c-.001 3.746 3.045 6.789 6.794 6.789zm-19.41 0a6.793 6.793 0 0 0 6.795-6.789 6.79 6.79 0 0 0-6.794-6.788 6.79 6.79 0 0 0-6.788 6.788 6.793 6.793 0 0 0 6.788 6.789zm-19.404 0a6.793 6.793 0 0 0 6.795-6.789 6.791 6.791 0 0 0-13.582 0 6.795 6.795 0 0 0 6.787 6.789zm-19.399 0a6.79 6.79 0 1 0 0-13.577 6.788 6.788 0 1 0 0 13.577zm-38.808 0a6.788 6.788 0 1 0 0-13.577 6.789 6.789 0 1 0 0 13.577zm-19.4 0a6.79 6.79 0 0 0 6.79-6.789 6.787 6.787 0 0 0-6.79-6.788 6.788 6.788 0 1 0 0 13.577zm-291.056 0a6.793 6.793 0 0 0 6.794-6.789 6.79 6.79 0 0 0-6.794-6.788 6.789 6.789 0 1 0 0 13.577zm-19.404 0a6.795 6.795 0 0 0 6.794-6.789 6.791 6.791 0 0 0-6.794-6.788 6.785 6.785 0 0 0-6.785 6.788 6.788 6.788 0 0 0 6.785 6.789zm-19.404 0a6.794 6.794 0 0 0 6.797-6.789 6.79 6.79 0 0 0-6.797-6.788 6.792 6.792 0 0 0-6.79 6.788 6.795 6.795 0 0 0 6.79 6.789zm-19.4 0a6.794 6.794 0 0 0 6.792-6.789c0-3.75-3.043-6.788-6.792-6.788s-6.792 3.038-6.792 6.788a6.794 6.794 0 0 0 6.792 6.789zm-19.406 0a6.793 6.793 0 0 0 6.794-6.789 6.79 6.79 0 0 0-6.794-6.788 6.79 6.79 0 0 0-6.79 6.788 6.794 6.794 0 0 0 6.79 6.789zm-19.402 0a6.794 6.794 0 0 0 6.792-6.789 6.79 6.79 0 0 0-6.792-6.788 6.79 6.79 0 1 0 0 13.577zm-194.034 0a6.79 6.79 0 1 0 0-13.577 6.791 6.791 0 0 0-6.794 6.788 6.795 6.795 0 0 0 6.794 6.789zm-19.404 0a6.79 6.79 0 1 0 0-13.577 6.793 6.793 0 0 0-6.795 6.788c0 3.746 3.046 6.789 6.795 6.789zm-19.404 0a6.794 6.794 0 0 0 6.792-6.789c0-3.75-3.043-6.788-6.792-6.788s-6.795 3.038-6.795 6.788c0 3.746 3.046 6.789 6.795 6.789zm-19.404 0a6.795 6.795 0 0 0 6.794-6.789c0-3.75-3.043-6.788-6.794-6.788s-6.79 3.038-6.79 6.788a6.79 6.79 0 0 0 6.79 6.789zm-19.404 0a6.795 6.795 0 0 0 6.794-6.789c0-3.75-3.043-6.788-6.794-6.788s-6.79 3.038-6.79 6.788a6.79 6.79 0 0 0 6.79 6.789zm-19.402 0a6.79 6.79 0 1 0 0-13.577 6.787 6.787 0 0 0-6.79 6.788 6.79 6.79 0 0 0 6.79 6.789zm-19.404 0a6.793 6.793 0 0 0 6.794-6.789 6.79 6.79 0 0 0-6.794-6.788 6.787 6.787 0 0 0-6.79 6.788 6.79 6.79 0 0 0 6.79 6.789zm-19.402 0a6.79 6.79 0 1 0 0-13.577 6.79 6.79 0 1 0 0 13.577zm892.565 19.403c3.744 0 6.783-3.04 6.783-6.79 0-3.751-3.039-6.794-6.783-6.794a6.798 6.798 0 0 0-6.797 6.793 6.796 6.796 0 0 0 6.797 6.791zm-77.623 0a6.792 6.792 0 1 0 .005-13.584 6.792 6.792 0 0 0-.005 13.584zm-19.405 0a6.792 6.792 0 1 0 0-13.584c-3.741 0-6.787 3.043-6.787 6.793a6.794 6.794 0 0 0 6.787 6.791zm-19.399 0a6.791 6.791 0 0 0 6.792-6.79 6.792 6.792 0 1 0-13.584 0 6.79 6.79 0 0 0 6.792 6.79zm-349.264 0a6.792 6.792 0 1 0 0-13.584 6.793 6.793 0 0 0 0 13.584zm-19.404 0a6.794 6.794 0 0 0 6.794-6.79 6.789 6.789 0 1 0-13.58 0 6.787 6.787 0 0 0 6.786 6.79zm-19.404 0a6.792 6.792 0 1 0-6.79-6.79 6.794 6.794 0 0 0 6.79 6.79zm-19.4 0a6.793 6.793 0 0 0 0-13.584 6.793 6.793 0 0 0 0 13.585zm-19.406 0a6.792 6.792 0 1 0 .005-13.584 6.792 6.792 0 0 0-.005 13.584zm-174.63 0a6.792 6.792 0 1 0 0-13.584 6.793 6.793 0 0 0 0 13.585zm-19.404 0a6.792 6.792 0 1 0 0-13.584 6.793 6.793 0 0 0 0 13.585zm-19.402 0a6.791 6.791 0 0 0 6.792-6.79 6.794 6.794 0 0 0-13.586 0 6.794 6.794 0 0 0 6.794 6.79zm-19.404 0a6.791 6.791 0 0 0 6.792-6.79 6.794 6.794 0 0 0-13.587 0 6.795 6.795 0 0 0 6.795 6.79zm-19.404 0a6.793 6.793 0 1 0-.002-13.586 6.793 6.793 0 0 0 .002 13.586zm-19.404 0a6.794 6.794 0 0 0 6.794-6.79 6.792 6.792 0 1 0-13.584 0 6.79 6.79 0 0 0 6.79 6.79zm-19.404 0a6.794 6.794 0 0 0 6.794-6.79 6.792 6.792 0 1 0-13.584 0 6.79 6.79 0 0 0 6.79 6.79zm-19.402 0a6.791 6.791 0 0 0 6.792-6.79 6.791 6.791 0 1 0-13.582 0 6.79 6.79 0 0 0 6.79 6.79zm-19.404 0a6.792 6.792 0 1 0 0-13.584 6.791 6.791 0 0 0-6.79 6.793 6.79 6.79 0 0 0 6.79 6.791zm-19.402 0a6.791 6.791 0 0 0 6.792-6.79c0-3.751-3.04-6.794-6.792-6.794a6.794 6.794 0 0 0-6.792 6.793c0 3.751 3.04 6.791 6.792 6.791zm-19.404 0a6.791 6.791 0 0 0 6.792-6.79 6.793 6.793 0 1 0-6.792 6.791zm931.364 19.396a6.79 6.79 0 1 0 0-13.58 6.788 6.788 0 0 0-6.785 6.792 6.786 6.786 0 0 0 6.785 6.788zm-97.018 0a6.79 6.79 0 1 0 0-13.58 6.79 6.79 0 0 0 0 13.58zm-38.804 0a6.79 6.79 0 1 0 0-13.58 6.79 6.79 0 1 0 0 13.58zm-19.406 0a6.79 6.79 0 1 0 .005-13.58 6.79 6.79 0 0 0-.005 13.58zm-291.045 0a6.788 6.788 0 0 0 6.785-6.788 6.79 6.79 0 0 0-6.785-6.791 6.79 6.79 0 1 0 0 13.58zm-38.813 0a6.79 6.79 0 1 0 0-13.58 6.79 6.79 0 0 0 0 13.58zm-19.404 0a6.791 6.791 0 0 0 6.794-6.788 6.794 6.794 0 0 0-6.794-6.791 6.787 6.787 0 0 0-6.785 6.79 6.785 6.785 0 0 0 6.785 6.79zm-19.404 0a6.79 6.79 0 1 0 0-13.58 6.794 6.794 0 0 0-6.79 6.792 6.792 6.792 0 0 0 6.79 6.788zm-19.4 0a6.79 6.79 0 1 0 0-13.58 6.79 6.79 0 1 0 0 13.58zm-19.406 0a6.79 6.79 0 1 0 0-13.58 6.79 6.79 0 0 0 0 13.58zm-194.034 0a6.79 6.79 0 1 0 0-13.58 6.79 6.79 0 1 0 0 13.58zm-19.402 0a6.79 6.79 0 1 0 0-13.58 6.794 6.794 0 0 0-6.794 6.792 6.791 6.791 0 0 0 6.794 6.788zm-19.404 0a6.79 6.79 0 1 0 0-13.58 6.795 6.795 0 0 0-6.795 6.792 6.793 6.793 0 0 0 6.795 6.788zm-19.404 0a6.79 6.79 0 1 0 0-13.58 6.795 6.795 0 0 0-6.795 6.792 6.793 6.793 0 0 0 6.795 6.788zm-19.404 0a6.791 6.791 0 0 0 6.794-6.788c0-3.75-3.043-6.791-6.794-6.791s-6.79 3.04-6.79 6.79a6.787 6.787 0 0 0 6.79 6.79zm-19.404 0a6.791 6.791 0 0 0 6.794-6.788c0-3.75-3.043-6.791-6.794-6.791s-6.79 3.04-6.79 6.79a6.787 6.787 0 0 0 6.79 6.79zm-19.402 0a6.79 6.79 0 1 0 0-13.58 6.79 6.79 0 0 0-6.79 6.792 6.787 6.787 0 0 0 6.79 6.788zm-19.404 0a6.79 6.79 0 1 0 0-13.58 6.79 6.79 0 0 0-6.79 6.792 6.787 6.787 0 0 0 6.79 6.788zm873.163 19.399a6.785 6.785 0 0 0 6.783-6.786c0-3.748-3.039-6.791-6.783-6.791-3.751 0-6.797 3.042-6.797 6.79 0 3.75 3.046 6.787 6.797 6.787zm-58.214 0a6.79 6.79 0 0 0 6.79-6.786 6.794 6.794 0 0 0-6.79-6.791 6.797 6.797 0 0 0-6.795 6.79c0 3.75 3.046 6.787 6.795 6.787zm-19.41 0a6.79 6.79 0 0 0 6.795-6.786 6.794 6.794 0 0 0-6.794-6.791 6.794 6.794 0 0 0-6.788 6.79 6.79 6.79 0 0 0 6.788 6.787zm-19.404 0a6.79 6.79 0 0 0 6.795-6.786 6.794 6.794 0 0 0-6.795-6.791 6.795 6.795 0 0 0-6.787 6.79 6.79 6.79 0 0 0 6.787 6.787zm-19.399 0a6.789 6.789 0 1 0 0-13.577 6.791 6.791 0 0 0-6.792 6.79 6.787 6.787 0 0 0 6.792 6.787zm-19.406 0a6.787 6.787 0 0 0 6.792-6.786 6.791 6.791 0 0 0-6.792-6.791 6.788 6.788 0 0 0 0 13.577zm-19.402 0a6.787 6.787 0 0 0 6.792-6.786 6.791 6.791 0 0 0-13.582 0 6.788 6.788 0 0 0 6.79 6.786zm-19.4 0a6.787 6.787 0 0 0 6.79-6.786 6.79 6.79 0 1 0-13.581 0 6.787 6.787 0 0 0 6.792 6.786zm-252.243 0a6.787 6.787 0 0 0 6.785-6.786c0-3.748-3.041-6.791-6.785-6.791a6.791 6.791 0 0 0-6.792 6.79 6.787 6.787 0 0 0 6.792 6.787zm-38.813 0a6.79 6.79 0 0 0 6.794-6.786 6.792 6.792 0 0 0-13.584 0 6.788 6.788 0 0 0 6.79 6.786zm-19.404 0c3.751 0 6.794-3.038 6.794-6.786a6.795 6.795 0 0 0-6.794-6.791 6.788 6.788 0 0 0-6.785 6.79 6.784 6.784 0 0 0 6.785 6.787zm-19.404 0a6.79 6.79 0 0 0 6.797-6.786 6.794 6.794 0 0 0-13.587 0 6.791 6.791 0 0 0 6.79 6.786zm-19.4 0a6.79 6.79 0 0 0 6.792-6.786c0-3.748-3.043-6.791-6.792-6.791s-6.792 3.042-6.792 6.79a6.79 6.79 0 0 0 6.792 6.787zm-19.406 0a6.79 6.79 0 0 0 6.794-6.786 6.794 6.794 0 0 0-6.794-6.791 6.794 6.794 0 0 0-6.79 6.79 6.79 6.79 0 0 0 6.79 6.787zm-213.436 0a6.789 6.789 0 1 0 0-13.577 6.795 6.795 0 0 0-6.794 6.79c0 3.75 3.043 6.787 6.794 6.787zm-19.404 0a6.789 6.789 0 1 0 0-13.577 6.797 6.797 0 0 0-6.795 6.79c0 3.75 3.046 6.787 6.795 6.787zm-19.404 0a6.79 6.79 0 0 0 6.792-6.786c0-3.748-3.043-6.791-6.792-6.791s-6.795 3.042-6.795 6.79c0 3.75 3.046 6.787 6.795 6.787zm-19.404 0c3.751 0 6.794-3.038 6.794-6.786a6.791 6.791 0 0 0-13.584 0 6.787 6.787 0 0 0 6.79 6.786zm-19.404 0c3.751 0 6.794-3.038 6.794-6.786a6.791 6.791 0 0 0-13.584 0 6.787 6.787 0 0 0 6.79 6.786zm-19.402 0a6.789 6.789 0 1 0 0-13.577 6.79 6.79 0 0 0-6.79 6.79 6.787 6.787 0 0 0 6.79 6.787zm814.941 19.406a6.792 6.792 0 1 0 0-13.585c-3.741 0-6.785 3.043-6.785 6.791 0 3.753 3.044 6.794 6.785 6.794zm-19.396 0a6.793 6.793 0 0 0 0-13.585 6.797 6.797 0 0 0-6.795 6.791 6.796 6.796 0 0 0 6.795 6.794zm-19.41 0a6.792 6.792 0 1 0 0-13.585 6.792 6.792 0 0 0 0 13.585zm-19.404 0a6.793 6.793 0 1 0 0-13.585 6.795 6.795 0 0 0-6.787 6.791 6.794 6.794 0 0 0 6.787 6.794zm-19.399 0a6.792 6.792 0 1 0 0-13.585 6.791 6.791 0 0 0-6.792 6.791 6.79 6.79 0 0 0 6.792 6.794zm-19.406 0a6.79 6.79 0 0 0 6.792-6.794 6.791 6.791 0 0 0-6.792-6.79 6.792 6.792 0 0 0-6.788 6.79 6.79 6.79 0 0 0 6.788 6.794zm-19.402 0a6.79 6.79 0 0 0 6.792-6.794 6.791 6.791 0 0 0-13.582 0 6.791 6.791 0 0 0 6.79 6.794zm-19.4 0a6.79 6.79 0 0 0 6.79-6.794 6.79 6.79 0 1 0-13.581 0 6.79 6.79 0 0 0 6.792 6.794zm-19.406 0c3.754 0 6.79-3.04 6.79-6.794a6.79 6.79 0 1 0-13.58 0 6.791 6.791 0 0 0 6.79 6.794zm-252.246 0a6.794 6.794 0 0 0 6.794-6.794 6.795 6.795 0 0 0-13.587 0 6.794 6.794 0 0 0 6.793 6.794zm-38.808 0a6.794 6.794 0 0 0 6.794-6.794 6.795 6.795 0 0 0-6.794-6.79 6.788 6.788 0 0 0-6.785 6.79 6.787 6.787 0 0 0 6.785 6.794zm-19.404 0a6.793 6.793 0 1 0 .008-13.586 6.793 6.793 0 0 0-.008 13.586zm-19.4 0a6.794 6.794 0 0 0 6.792-6.794c0-3.748-3.043-6.79-6.792-6.79s-6.792 3.042-6.792 6.79a6.794 6.794 0 0 0 6.792 6.794zm-19.406 0a6.792 6.792 0 1 0 .004-13.585 6.792 6.792 0 0 0-.004 13.585zm-194.034 0a6.792 6.792 0 1 0 0-13.585 6.795 6.795 0 0 0-6.792 6.791 6.794 6.794 0 0 0 6.792 6.794zm-19.402 0a6.792 6.792 0 1 0 0-13.585 6.795 6.795 0 0 0-6.794 6.791 6.794 6.794 0 0 0 6.794 6.794zm-19.404 0a6.792 6.792 0 1 0 0-13.585 6.797 6.797 0 0 0-6.795 6.791 6.796 6.796 0 0 0 6.795 6.794zm-19.404 0a6.794 6.794 0 0 0 6.792-6.794c0-3.748-3.043-6.79-6.792-6.79s-6.795 3.042-6.795 6.79a6.796 6.796 0 0 0 6.795 6.794zm-19.404 0a6.794 6.794 0 0 0 6.794-6.794c0-3.748-3.043-6.79-6.794-6.79s-6.79 3.042-6.79 6.79a6.79 6.79 0 0 0 6.79 6.794zm-19.404 0a6.794 6.794 0 0 0 6.794-6.794c0-3.748-3.043-6.79-6.794-6.79s-6.79 3.042-6.79 6.79a6.79 6.79 0 0 0 6.79 6.794zm795.54 19.398a6.792 6.792 0 1 0 0-13.582 6.791 6.791 0 0 0 0 13.582zm-19.397 0c3.746 0 6.79-3.04 6.79-6.79a6.794 6.794 0 0 0-6.79-6.792 6.797 6.797 0 0 0-6.795 6.791 6.795 6.795 0 0 0 6.795 6.791zm-19.41 0a6.792 6.792 0 1 0 0-13.582 6.792 6.792 0 0 0 0 13.582zm-19.404 0a6.792 6.792 0 1 0 0-13.582 6.795 6.795 0 0 0-6.787 6.791 6.794 6.794 0 0 0 6.787 6.791zm-19.399 0a6.791 6.791 0 1 0 0-13.582 6.791 6.791 0 1 0 0 13.582zm-19.406 0a6.791 6.791 0 1 0 0-13.582 6.792 6.792 0 0 0 0 13.582zm-19.402 0a6.791 6.791 0 1 0 .001-13.581 6.791 6.791 0 0 0-.001 13.581zm-19.4 0a6.79 6.79 0 0 0 6.79-6.79 6.79 6.79 0 1 0-6.79 6.79zm-19.406 0c3.754 0 6.79-3.04 6.79-6.79a6.79 6.79 0 1 0-13.58 0 6.79 6.79 0 0 0 6.79 6.79zm-291.054 0a6.794 6.794 0 0 0 6.794-6.79 6.795 6.795 0 0 0-6.794-6.792 6.788 6.788 0 0 0-6.785 6.791 6.787 6.787 0 0 0 6.785 6.791zm-19.404 0a6.792 6.792 0 0 0 6.797-6.79 6.794 6.794 0 0 0-13.587 0 6.794 6.794 0 0 0 6.79 6.79zm-19.4 0a6.793 6.793 0 0 0 6.792-6.79c0-3.749-3.043-6.792-6.792-6.792s-6.792 3.043-6.792 6.791a6.793 6.793 0 0 0 6.792 6.791zm-252.246 0a6.791 6.791 0 1 0 0-13.582 6.797 6.797 0 0 0-6.795 6.791 6.795 6.795 0 0 0 6.795 6.791zm-19.404 0a6.793 6.793 0 0 0 6.792-6.79c0-3.749-3.043-6.792-6.792-6.792s-6.795 3.043-6.795 6.791a6.795 6.795 0 0 0 6.795 6.791zm-19.404 0a6.794 6.794 0 0 0 6.794-6.79 6.791 6.791 0 1 0-6.795 6.791zm-19.404 0a6.794 6.794 0 0 0 6.794-6.79 6.791 6.791 0 1 0-6.795 6.791zm776.143 19.399a6.79 6.79 0 0 0 0-13.582 6.799 6.799 0 0 0-6.795 6.793 6.793 6.793 0 0 0 6.795 6.789zm-19.41 0a6.79 6.79 0 1 0 0-13.582c-3.743 0-6.787 3.045-6.787 6.793a6.79 6.79 0 0 0 6.788 6.789zm-19.404 0a6.79 6.79 0 1 0 0-13.582c-3.741 0-6.787 3.045-6.787 6.793a6.791 6.791 0 0 0 6.787 6.789zm-58.207 0a6.788 6.788 0 0 0 6.792-6.789 6.794 6.794 0 0 0-6.792-6.793 6.795 6.795 0 0 0-6.79 6.793c0 3.751 3.041 6.789 6.79 6.789zm-19.4 0a6.787 6.787 0 0 0 6.79-6.789 6.793 6.793 0 0 0-6.79-6.793 6.794 6.794 0 0 0-6.791 6.793 6.788 6.788 0 0 0 6.792 6.789zm-329.864 0a6.79 6.79 0 1 0 0-13.582c-3.745 0-6.79 3.045-6.79 6.793a6.792 6.792 0 0 0 6.79 6.789zm-19.4 0a6.79 6.79 0 1 0 0-13.582 6.79 6.79 0 1 0 0 13.582zm-252.246 0a6.79 6.79 0 0 0 6.792-6.789 6.795 6.795 0 0 0-6.792-6.793 6.799 6.799 0 0 0-6.795 6.793 6.793 6.793 0 0 0 6.795 6.789zm-19.404 0a6.79 6.79 0 1 0 0-13.582 6.799 6.799 0 0 0-6.795 6.793 6.793 6.793 0 0 0 6.795 6.789zm-19.404 0a6.791 6.791 0 0 0 6.794-6.789c0-3.748-3.043-6.793-6.794-6.793s-6.79 3.045-6.79 6.793a6.787 6.787 0 0 0 6.79 6.789zm-19.404 0a6.791 6.791 0 0 0 6.794-6.789c0-3.748-3.043-6.793-6.794-6.793s-6.79 3.045-6.79 6.793a6.787 6.787 0 0 0 6.79 6.789zm-19.402 0a6.79 6.79 0 0 0 6.792-6.789c0-3.748-3.04-6.793-6.792-6.793s-6.79 3.045-6.79 6.793a6.787 6.787 0 0 0 6.79 6.789zm892.56 19.406a6.793 6.793 0 0 0 6.79-6.794c0-3.75-3.04-6.793-6.79-6.793a6.791 6.791 0 0 0-6.79 6.793 6.791 6.791 0 0 0 6.79 6.794zm-116.424 0a6.794 6.794 0 1 0 0-13.587c-3.744 0-6.788 3.043-6.788 6.793 0 3.751 3.044 6.794 6.788 6.794zm-19.405 0a6.794 6.794 0 1 0 0-13.587c-3.741 0-6.787 3.043-6.787 6.793 0 3.751 3.046 6.794 6.787 6.794zm-698.521 0a6.795 6.795 0 0 0 6.792-6.794c0-3.75-3.043-6.793-6.792-6.793s-6.795 3.043-6.795 6.793a6.797 6.797 0 0 0 6.795 6.794zm-19.404 0a6.796 6.796 0 0 0 6.794-6.794 6.792 6.792 0 1 0-13.584 0 6.791 6.791 0 0 0 6.79 6.794zm-19.404 0a6.796 6.796 0 0 0 6.794-6.794 6.792 6.792 0 1 0-13.584 0 6.791 6.791 0 0 0 6.79 6.794zm-19.402 0a6.794 6.794 0 0 0 0-13.587 6.791 6.791 0 0 0-6.79 6.793 6.791 6.791 0 0 0 6.79 6.794zm892.56 19.4a6.793 6.793 0 0 0 0-13.584 6.79 6.79 0 0 0-6.79 6.791 6.791 6.791 0 0 0 6.79 6.794zm-19.406 0a6.792 6.792 0 0 0 6.792-6.793 6.788 6.788 0 1 0-13.577 0c0 3.75 3.038 6.794 6.785 6.794zm-834.348 0a6.796 6.796 0 0 0 6.794-6.793c0-3.75-3.043-6.79-6.794-6.79s-6.79 3.04-6.79 6.79a6.791 6.791 0 0 0 6.79 6.794zm-19.404 0a6.796 6.796 0 0 0 6.794-6.793c0-3.75-3.043-6.79-6.794-6.79s-6.79 3.04-6.79 6.79a6.791 6.791 0 0 0 6.79 6.794zm-19.402 0a6.794 6.794 0 0 0 6.792-6.793 6.791 6.791 0 0 0-13.582 0 6.791 6.791 0 0 0 6.79 6.794zm873.154 19.397a6.79 6.79 0 0 0 6.792-6.789 6.789 6.789 0 1 0-13.577 0 6.788 6.788 0 0 0 6.785 6.789zm-97.018 0a6.791 6.791 0 1 0 .006-13.583 6.791 6.791 0 0 0-.006 13.583zm-737.33 0A6.793 6.793 0 0 0 382.25 647c0-3.753-3.043-6.793-6.794-6.793s-6.79 3.04-6.79 6.793a6.789 6.789 0 0 0 6.79 6.789zm-19.404 0a6.793 6.793 0 0 0 6.794-6.789c0-3.753-3.043-6.793-6.794-6.793s-6.79 3.04-6.79 6.793a6.789 6.789 0 0 0 6.79 6.789zm-19.402 0a6.79 6.79 0 1 0 .002-13.582 6.79 6.79 0 0 0-.002 13.582zm853.76 19.4c3.743 0 6.782-3.04 6.782-6.79a6.785 6.785 0 0 0-6.783-6.786c-3.751 0-6.797 3.037-6.797 6.786a6.796 6.796 0 0 0 6.797 6.79zm-19.415 0a6.794 6.794 0 0 0 6.798-6.79c0-3.749-3.044-6.786-6.798-6.786a6.79 6.79 0 0 0 0 13.577zm-756.73 0a6.789 6.789 0 1 0 0-13.577c-3.75 0-6.796 3.038-6.796 6.787a6.795 6.795 0 0 0 6.795 6.79zm-58.213 0a6.794 6.794 0 0 0 6.794-6.79c0-3.749-3.043-6.786-6.794-6.786s-6.79 3.037-6.79 6.786a6.79 6.79 0 0 0 6.79 6.79zm-19.402 0a6.789 6.789 0 1 0 0-13.577 6.79 6.79 0 1 0 0 13.577zm19.402 19.404a6.791 6.791 0 1 0 0-13.582 6.787 6.787 0 0 0-6.79 6.789 6.791 6.791 0 0 0 6.79 6.793zM375.456 712a6.797 6.797 0 0 0 0-13.592 6.79 6.79 0 0 0-6.79 6.794 6.792 6.792 0 0 0 6.79 6.798z"/></svg>